<?xml version="1.0" encoding="utf-8"?>
<!-- Generator: Adobe Illustrator 26.3.1, SVG Export Plug-In . SVG Version: 6.00 Build 0)  -->
<svg version="1.1" id="Layer_6" xmlns="http://www.w3.org/2000/svg" xmlns:xlink="http://www.w3.org/1999/xlink" x="0px" y="0px"
	 viewBox="0 0 179.9 151.5" style="enable-background:new 0 0 179.9 151.5;" xml:space="preserve">
<style type="text/css">
	.st0{fill:#D814AB;}
	.st1{fill:#F2E68E;}
	.st2{fill:#14181F;}
</style>
<rect x="169.1" y="75.2" class="st0" width="9.4" height="9.4"/>
<rect x="169.1" y="65.8" class="st0" width="9.4" height="9.3"/>
<rect x="159.8" y="103.3" class="st0" width="9.4" height="9.4"/>
<rect x="159.8" y="93.9" class="st0" width="9.4" height="9.4"/>
<rect x="159.8" y="84.6" class="st0" width="9.4" height="9.4"/>
<polygon class="st0" points="169.1,75.2 169.1,84.6 159.8,84.6 150.4,84.6 141.1,84.6 141.1,84.6 131.7,84.6 122.4,84.6 122.4,84.6 
	113,84.6 103.7,84.6 94.3,84.6 94.3,75.2 94.3,65.9 103.7,65.9 113,65.9 122.4,65.9 122.4,65.8 131.7,65.8 141.1,65.8 150.4,65.8 
	159.8,65.8 169.1,65.8 "/>
<rect x="159.8" y="56.5" class="st0" width="9.4" height="9.4"/>
<rect x="159.8" y="47.1" class="st0" width="9.4" height="9.3"/>
<rect x="159.8" y="37.8" class="st0" width="9.4" height="9.4"/>
<rect x="150.4" y="131.4" class="st0" width="9.4" height="9.4"/>
<rect x="150.4" y="122.1" class="st0" width="9.4" height="9.4"/>
<rect x="150.4" y="112.7" class="st0" width="9.4" height="9.4"/>
<polygon class="st0" points="159.8,103.3 159.8,112.7 150.4,112.7 141.1,112.7 141.1,112.7 131.7,112.7 122.4,112.7 122.4,112.7 
	113,112.7 103.7,112.7 94.3,112.7 94.3,103.3 94.3,93.9 103.7,93.9 113,93.9 122.4,93.9 122.4,93.9 131.7,93.9 141.1,93.9 
	141.1,93.9 150.4,93.9 159.8,93.9 "/>
<rect x="150.4" y="84.6" class="st0" width="9.4" height="9.4"/>
<rect x="150.4" y="56.5" class="st0" width="9.4" height="9.4"/>
<rect x="150.4" y="28.4" class="st0" width="9.4" height="9.4"/>
<rect x="141.1" y="140.8" class="st0" width="9.4" height="9.4"/>
<polygon class="st0" points="150.4,112.7 150.4,122.1 141.1,122.1 141.1,122.1 141.1,112.7 "/>
<polygon class="st0" points="150.4,84.6 150.4,93.9 141.1,93.9 141.1,93.9 141.1,84.6 "/>
<rect x="141.1" y="56.5" class="st0" width="9.4" height="9.4"/>
<polygon class="st0" points="150.4,28.4 150.4,37.8 141.1,37.8 141.1,37.7 141.1,28.4 "/>
<rect x="131.7" y="140.8" class="st0" width="9.4" height="9.4"/>
<polygon class="st0" points="141.1,112.7 141.1,122.1 131.7,122.1 131.7,112.7 141.1,112.7 "/>
<polygon class="st0" points="141.1,84.6 141.1,93.9 131.7,93.9 131.7,84.6 141.1,84.6 "/>
<rect x="131.7" y="56.5" class="st0" width="9.4" height="9.4"/>
<path class="st0" d="M141.1,37.7L141.1,37.7h18.7v18.7h-37.4l0,0H94.3v-9.3h-9.3v84.3h9.3v-9.4h28.1l0,0h18.7l0,0h9.4v18.7h-28.1
	l0,0H19.5v-9.4h-9.4V47.1h9.4V28.4h9.4V19h18.7V9.6h46.7V19h-9.3v9.4h-28v9.4h65.5l0,0L141.1,37.7L141.1,37.7z M66.3,103.3V47.1
	h-9.4v18.7h-9.4v9.3H19.5v9.4h28.1v-9.4h9.4v28.1H66.3z"/>
<rect x="131.7" y="28.4" class="st0" width="9.4" height="9.4"/>
<polygon class="st0" points="131.7,140.8 131.7,150.2 122.4,150.2 122.4,140.8 122.4,140.8 "/>
<polygon class="st0" points="131.7,112.7 131.7,122.1 122.4,122.1 122.4,112.7 122.4,112.7 "/>
<polygon class="st0" points="131.7,84.6 131.7,93.9 122.4,93.9 122.4,84.6 122.4,84.6 "/>
<polygon class="st0" points="131.7,56.5 131.7,65.8 122.4,65.8 122.4,56.5 122.4,56.5 "/>
<polygon class="st0" points="131.7,28.4 131.7,37.7 122.4,37.7 122.4,28.4 122.4,28.4 "/>
<polygon class="st0" points="122.4,150.2 122.4,150.2 113,150.2 113,140.8 122.4,140.8 "/>
<polygon class="st0" points="122.4,122.1 122.4,122.1 113,122.1 113,112.7 122.4,112.7 "/>
<polygon class="st0" points="122.4,93.9 122.4,93.9 113,93.9 113,84.6 122.4,84.6 "/>
<polygon class="st0" points="122.4,65.8 122.4,65.9 113,65.9 113,56.5 122.4,56.5 "/>
<polygon class="st0" points="122.4,37.7 122.4,37.8 113,37.8 113,28.4 122.4,28.4 "/>
<rect x="103.7" y="140.8" class="st0" width="9.4" height="9.4"/>
<rect x="103.7" y="112.7" class="st0" width="9.4" height="9.4"/>
<rect x="103.7" y="84.6" class="st0" width="9.4" height="9.4"/>
<rect x="103.7" y="56.5" class="st0" width="9.4" height="9.4"/>
<rect x="103.7" y="28.4" class="st0" width="9.4" height="9.4"/>
<rect x="94.3" y="140.8" class="st0" width="9.4" height="9.4"/>
<rect x="94.3" y="112.7" class="st0" width="9.4" height="9.4"/>
<rect x="94.3" y="84.6" class="st0" width="9.4" height="9.4"/>
<rect x="94.3" y="56.5" class="st0" width="9.4" height="9.4"/>
<rect x="94.3" y="28.4" class="st0" width="9.4" height="9.4"/>
<rect x="94.3" y="9.6" class="st0" width="9.4" height="9.4"/>
<rect x="94.3" y="0.3" class="st0" width="9.4" height="9.4"/>
<rect x="84.9" y="140.8" class="st0" width="9.3" height="9.4"/>
<rect x="84.9" y="122.1" class="st0" width="9.3" height="9.4"/>
<rect x="84.9" y="112.7" class="st0" width="9.3" height="9.4"/>
<rect x="84.9" y="103.3" class="st0" width="9.3" height="9.4"/>
<rect x="84.9" y="93.9" class="st0" width="9.3" height="9.4"/>
<rect x="84.9" y="84.6" class="st0" width="9.3" height="9.4"/>
<rect x="84.9" y="75.2" class="st0" width="9.3" height="9.4"/>
<rect x="84.9" y="65.9" class="st0" width="9.3" height="9.3"/>
<rect x="84.9" y="56.5" class="st0" width="9.3" height="9.4"/>
<rect x="84.9" y="47.1" class="st0" width="9.3" height="9.4"/>
<rect x="84.9" y="28.4" class="st0" width="9.3" height="9.4"/>
<rect x="84.9" y="19" class="st0" width="9.3" height="9.4"/>
<rect x="84.9" y="0.3" class="st0" width="9.3" height="9.4"/>
<rect x="75.6" y="140.8" class="st0" width="9.3" height="9.4"/>
<rect x="75.6" y="28.4" class="st0" width="9.3" height="9.4"/>
<rect x="75.6" y="0.3" class="st0" width="9.3" height="9.4"/>
<rect x="66.3" y="140.8" class="st0" width="9.4" height="9.4"/>
<rect x="66.3" y="28.4" class="st0" width="9.4" height="9.4"/>
<rect x="66.3" y="0.3" class="st0" width="9.4" height="9.4"/>
<rect x="56.9" y="140.8" class="st0" width="9.4" height="9.4"/>
<rect x="56.9" y="93.9" class="st0" width="9.4" height="9.4"/>
<rect x="56.9" y="84.6" class="st0" width="9.4" height="9.4"/>
<rect x="56.9" y="75.2" class="st0" width="9.4" height="9.4"/>
<rect x="56.9" y="65.9" class="st0" width="9.4" height="9.3"/>
<rect x="56.9" y="56.5" class="st0" width="9.4" height="9.4"/>
<rect x="56.9" y="47.1" class="st0" width="9.4" height="9.4"/>
<rect x="56.9" y="28.4" class="st0" width="9.4" height="9.4"/>
<rect x="56.9" y="0.3" class="st0" width="9.4" height="9.4"/>
<rect x="47.5" y="140.8" class="st0" width="9.4" height="9.4"/>
<rect x="47.5" y="65.9" class="st0" width="9.4" height="9.3"/>
<rect x="47.5" y="0.3" class="st0" width="9.4" height="9.4"/>
<rect x="38.2" y="140.8" class="st0" width="9.4" height="9.4"/>
<rect x="38.2" y="75.2" class="st0" width="9.4" height="9.4"/>
<rect x="38.2" y="9.6" class="st0" width="9.4" height="9.4"/>
<rect x="28.8" y="140.8" class="st0" width="9.4" height="9.4"/>
<rect x="28.8" y="75.2" class="st0" width="9.4" height="9.4"/>
<rect x="28.8" y="9.6" class="st0" width="9.4" height="9.4"/>
<rect x="19.5" y="140.8" class="st0" width="9.4" height="9.4"/>
<rect x="19.5" y="75.2" class="st0" width="9.4" height="9.4"/>
<rect x="19.5" y="19" class="st0" width="9.4" height="9.4"/>
<rect x="10.1" y="131.4" class="st0" width="9.4" height="9.4"/>
<rect x="10.1" y="37.8" class="st0" width="9.4" height="9.4"/>
<rect x="10.1" y="28.4" class="st0" width="9.4" height="9.4"/>
<rect x="0.8" y="122.1" class="st0" width="9.4" height="9.4"/>
<rect x="0.8" y="112.7" class="st0" width="9.4" height="9.4"/>
<rect x="0.8" y="103.3" class="st0" width="9.4" height="9.4"/>
<rect x="0.8" y="93.9" class="st0" width="9.4" height="9.4"/>
<rect x="0.8" y="84.6" class="st0" width="9.4" height="9.4"/>
<rect x="0.8" y="75.2" class="st0" width="9.4" height="9.4"/>
<rect x="0.8" y="65.9" class="st0" width="9.4" height="9.3"/>
<rect x="0.8" y="56.5" class="st0" width="9.4" height="9.4"/>
<rect x="0.8" y="47.1" class="st0" width="9.4" height="9.4"/>
<rect x="19.1" y="132.4" class="st1" width="9.4" height="9.5"/>
<rect x="9.7" y="122.8" class="st1" width="9.4" height="9.5"/>
<rect x="94.5" y="122.8" class="st1" width="9.4" height="9.5"/>
<rect x="9.7" y="113.3" class="st1" width="9.4" height="9.5"/>
<rect x="94.5" y="113.3" class="st1" width="9.4" height="9.5"/>
<rect x="9.7" y="103.8" class="st1" width="9.4" height="9.5"/>
<rect x="94.5" y="103.8" class="st1" width="9.4" height="9.5"/>
<rect x="9.7" y="94.3" class="st1" width="9.4" height="9.5"/>
<rect x="66.3" y="94.3" class="st1" width="9.4" height="9.5"/>
<rect x="94.5" y="94.3" class="st1" width="9.4" height="9.5"/>
<rect x="9.7" y="84.8" class="st1" width="9.4" height="9.5"/>
<rect x="66.3" y="84.8" class="st1" width="9.4" height="9.5"/>
<rect x="94.5" y="84.8" class="st1" width="9.4" height="9.5"/>
<rect x="9.7" y="75.3" class="st1" width="9.4" height="9.5"/>
<rect x="47.4" y="75.3" class="st1" width="9.4" height="9.5"/>
<rect x="66.3" y="75.3" class="st1" width="9.4" height="9.5"/>
<rect x="94.5" y="75.3" class="st1" width="9.4" height="9.5"/>
<rect x="9.7" y="65.9" class="st1" width="9.4" height="9.5"/>
<rect x="56.8" y="65.9" class="st1" width="9.4" height="9.5"/>
<rect x="66.3" y="65.9" class="st1" width="9.4" height="9.5"/>
<rect x="94.5" y="65.9" class="st1" width="9.4" height="9.5"/>
<rect x="9.7" y="56.4" class="st1" width="9.4" height="9.5"/>
<rect x="66.3" y="56.4" class="st1" width="9.4" height="9.5"/>
<rect x="94.5" y="56.4" class="st1" width="9.4" height="9.5"/>
<rect x="9.7" y="46.9" class="st1" width="9.4" height="9.5"/>
<rect x="66.3" y="46.9" class="st1" width="9.4" height="9.5"/>
<rect x="94.5" y="46.9" class="st1" width="9.4" height="9.5"/>
<rect x="19.1" y="37.4" class="st1" width="9.4" height="9.5"/>
<rect x="19.1" y="27.9" class="st1" width="9.4" height="9.5"/>
<rect x="28.5" y="18.4" class="st1" width="9.4" height="9.5"/>
<rect x="38" y="8.9" class="st1" width="9.4" height="9.5"/>
<rect x="47.4" y="8.9" class="st1" width="9.4" height="9.5"/>
<rect x="18.9" y="142" class="st2" width="9.5" height="9.5"/>
<rect x="28.4" y="142" class="st2" width="9.5" height="9.5"/>
<rect x="37.9" y="142" class="st2" width="9.5" height="9.5"/>
<rect x="47.3" y="142" class="st2" width="9.5" height="9.5"/>
<rect x="56.8" y="142" class="st2" width="9.5" height="9.5"/>
<rect x="66.3" y="142" class="st2" width="9.5" height="9.5"/>
<rect x="75.8" y="142" class="st2" width="9.4" height="9.5"/>
<rect x="85.2" y="142" class="st2" width="9.5" height="9.5"/>
<rect x="94.7" y="142" class="st2" width="9.5" height="9.5"/>
<rect x="104.1" y="142" class="st2" width="9.5" height="9.5"/>
<polygon class="st2" points="123.1,151.5 113.6,151.5 113.6,142 123.1,142 123.1,151.4 "/>
<polygon class="st2" points="132.5,151.4 123.1,151.4 123.1,142 123.1,142 132.5,142 "/>
<rect x="132.5" y="142" class="st2" width="9.5" height="9.5"/>
<rect x="142" y="142" class="st2" width="9.5" height="9.5"/>
<rect x="9.5" y="132.5" class="st2" width="9.5" height="9.5"/>
<rect x="151.5" y="132.5" class="st2" width="9.5" height="9.4"/>
<rect y="123.1" class="st2" width="9.5" height="9.5"/>
<rect x="85.2" y="123.1" class="st2" width="9.5" height="9.5"/>
<rect x="151.5" y="123.1" class="st2" width="9.5" height="9.5"/>
<rect y="113.6" class="st2" width="9.5" height="9.5"/>
<rect x="85.2" y="113.6" class="st2" width="9.5" height="9.5"/>
<rect x="94.7" y="113.6" class="st2" width="9.5" height="9.5"/>
<rect x="104.1" y="113.6" class="st2" width="9.5" height="9.5"/>
<polygon class="st2" points="151.5,123.1 142,123.1 142,123 142,113.6 151.5,113.6 "/>
<rect x="151.5" y="113.6" class="st2" width="9.5" height="9.5"/>
<polygon class="st2" points="123.1,123 123.1,123.1 113.6,123.1 113.6,113.6 123.1,113.6 "/>
<polygon class="st2" points="132.5,123 123.1,123 123.1,113.6 123.1,113.6 132.5,113.6 "/>
<rect y="104.1" class="st2" width="9.5" height="9.5"/>
<rect x="85.2" y="104.1" class="st2" width="9.5" height="9.5"/>
<rect x="161" y="104.1" class="st2" width="9.5" height="9.5"/>
<polygon class="st2" points="142,113.6 142,123 132.5,123 132.5,113.6 142,113.6 "/>
<rect y="94.6" class="st2" width="9.5" height="9.5"/>
<rect x="56.8" y="94.6" class="st2" width="9.5" height="9.5"/>
<rect x="85.2" y="94.6" class="st2" width="9.5" height="9.5"/>
<rect x="161" y="94.6" class="st2" width="9.5" height="9.5"/>
<rect y="85.2" class="st2" width="9.5" height="9.5"/>
<rect x="56.8" y="85.2" class="st2" width="9.5" height="9.5"/>
<rect x="85.2" y="85.2" class="st2" width="9.5" height="9.5"/>
<rect x="94.7" y="85.2" class="st2" width="9.5" height="9.5"/>
<rect x="104.1" y="85.2" class="st2" width="9.5" height="9.5"/>
<polygon class="st2" points="151.5,94.6 142,94.6 142,94.6 142,85.2 151.5,85.2 "/>
<rect x="151.5" y="85.2" class="st2" width="9.5" height="9.5"/>
<rect x="161" y="85.2" class="st2" width="9.5" height="9.5"/>
<polygon class="st2" points="123.1,94.6 113.6,94.6 113.6,85.2 123.1,85.2 123.1,94.6 "/>
<polygon class="st2" points="132.5,94.6 123.1,94.6 123.1,85.2 123.1,85.2 132.5,85.2 "/>
<rect y="75.7" class="st2" width="9.5" height="9.5"/>
<rect x="18.9" y="75.7" class="st2" width="9.5" height="9.5"/>
<rect x="28.4" y="75.7" class="st2" width="9.5" height="9.5"/>
<rect x="37.9" y="75.7" class="st2" width="9.5" height="9.5"/>
<rect x="56.8" y="75.7" class="st2" width="9.5" height="9.5"/>
<rect x="85.2" y="75.7" class="st2" width="9.5" height="9.5"/>
<rect x="170.4" y="75.7" class="st2" width="9.5" height="9.5"/>
<polygon class="st2" points="142,85.2 142,94.6 132.5,94.6 132.5,85.2 142,85.2 "/>
<rect y="66.3" class="st2" width="9.5" height="9.4"/>
<rect x="47.3" y="66.3" class="st2" width="9.5" height="9.4"/>
<rect x="56.8" y="66.3" class="st2" width="9.5" height="9.4"/>
<rect x="85.2" y="66.3" class="st2" width="9.5" height="9.4"/>
<rect x="170.4" y="66.2" class="st2" width="9.5" height="9.4"/>
<rect y="56.8" class="st2" width="9.5" height="9.5"/>
<rect x="56.8" y="56.8" class="st2" width="9.5" height="9.5"/>
<rect x="85.2" y="56.8" class="st2" width="9.5" height="9.5"/>
<rect x="94.7" y="56.8" class="st2" width="9.5" height="9.5"/>
<rect x="104.1" y="56.8" class="st2" width="9.5" height="9.5"/>
<polygon class="st2" points="123.1,66.3 113.6,66.3 113.6,56.8 123.1,56.8 123.1,66.2 "/>
<polygon class="st2" points="132.5,66.2 123.1,66.2 123.1,56.8 123.1,56.8 132.5,56.8 "/>
<rect x="132.5" y="56.8" class="st2" width="9.5" height="9.5"/>
<rect x="142" y="56.8" class="st2" width="9.5" height="9.5"/>
<rect x="151.5" y="56.8" class="st2" width="9.5" height="9.5"/>
<rect x="161" y="56.8" class="st2" width="9.5" height="9.5"/>
<polyline class="st2" points="0,47.3 9.5,47.3 9.5,56.8 0,56.8 0,47.3 "/>
<rect x="56.8" y="47.3" class="st2" width="9.5" height="9.5"/>
<rect x="85.2" y="47.3" class="st2" width="9.5" height="9.5"/>
<rect x="161" y="47.3" class="st2" width="9.5" height="9.4"/>
<rect x="9.5" y="37.9" class="st2" width="9.5" height="9.5"/>
<rect x="161" y="37.9" class="st2" width="9.5" height="9.5"/>
<rect x="9.5" y="28.4" class="st2" width="9.5" height="9.5"/>
<rect x="56.8" y="28.4" class="st2" width="9.5" height="9.5"/>
<rect x="66.3" y="28.4" class="st2" width="9.5" height="9.5"/>
<rect x="75.8" y="28.4" class="st2" width="9.4" height="9.5"/>
<rect x="85.2" y="28.4" class="st2" width="9.5" height="9.5"/>
<rect x="94.7" y="28.4" class="st2" width="9.5" height="9.5"/>
<rect x="104.1" y="28.4" class="st2" width="9.5" height="9.5"/>
<polygon class="st2" points="151.5,37.9 142,37.9 142,37.9 142,28.4 151.5,28.4 "/>
<rect x="151.5" y="28.4" class="st2" width="9.5" height="9.5"/>
<polygon class="st2" points="123.1,37.9 113.6,37.9 113.6,28.4 123.1,28.4 123.1,37.9 "/>
<polygon class="st2" points="132.5,37.9 123.1,37.9 123.1,28.4 123.1,28.4 132.5,28.4 "/>
<rect x="132.5" y="28.4" class="st2" width="9.5" height="9.5"/>
<rect x="18.9" y="18.9" class="st2" width="9.5" height="9.5"/>
<rect x="85.2" y="18.9" class="st2" width="9.5" height="9.5"/>
<rect x="28.4" y="9.5" class="st2" width="9.5" height="9.5"/>
<rect x="37.9" y="9.5" class="st2" width="9.5" height="9.5"/>
<rect x="94.7" y="9.5" class="st2" width="9.5" height="9.5"/>
<rect x="47.3" class="st2" width="9.5" height="9.5"/>
<rect x="56.8" class="st2" width="9.5" height="9.5"/>
<rect x="66.3" class="st2" width="9.5" height="9.5"/>
<rect x="75.8" class="st2" width="9.4" height="9.5"/>
<rect x="85.2" class="st2" width="9.5" height="9.5"/>
<rect x="94.7" class="st2" width="9.5" height="9.5"/>
</svg>
