<svg id="Layer_6" data-name="Layer 6" xmlns="http://www.w3.org/2000/svg" viewBox="0 0 1099.65 552.38"><defs><style>.cls-1{fill:#14181f;}.cls-2{fill:#d814ab;}.cls-3{fill:#f2e68e;}</style></defs><polygon class="cls-1" points="402.72 40.38 394.64 40.38 394.64 32.3 386.57 32.3 386.57 24.23 378.49 24.23 378.49 16.15 370.42 16.15 370.42 8.07 362.34 8.07 362.34 0 289.66 0 289.66 8.07 281.59 8.07 281.59 137.28 289.66 137.28 289.66 145.36 297.74 145.36 297.74 153.43 305.81 153.43 305.81 161.51 338.12 161.51 338.12 153.43 346.19 153.43 346.19 137.28 354.27 137.28 354.27 145.36 362.34 145.36 362.34 153.43 370.42 153.43 370.42 161.51 402.72 161.51 402.72 153.43 410.79 153.43 410.79 129.21 402.72 129.21 402.72 121.13 394.64 121.13 394.64 113.05 386.57 113.05 386.57 104.98 394.64 104.98 394.64 96.9 402.72 96.9 402.72 88.83 410.79 88.83 410.79 48.45 402.72 48.45 402.72 40.38"/><path class="cls-2" d="M378.49,32.3V24.23h-8.07V16.15h-8.08V8.08H289.66v129.2H322V96.9h16.15V105h8.07v8.07h8.08v24.23h32.3V113.05h-8.08V105h-8.07V96.9h-8.08V88.83h8.08V80.75h8.07V72.68h8.08V32.3ZM354.27,72.68h-8.08v8.07H322V24.23h24.22V32.3h8.08Z"/><path class="cls-3" d="M289.66,8.08v129.2h8.08V16.15h64.6V8.08Zm64.61,64.6h-8.08v8.07H330v8.08h24.23V80.75h8.07V40.38h-8.07Zm0,64.6h8.07V121.13h-8.07Z"/><polygon class="cls-1" points="545.72 56.53 545.72 40.38 537.64 40.38 537.64 32.3 529.57 32.3 529.57 24.23 521.49 24.23 521.49 16.15 513.42 16.15 513.42 8.08 497.27 8.08 497.27 0 481.12 0 464.97 0 464.97 8.07 448.81 8.07 448.81 16.15 440.74 16.15 440.74 24.23 432.66 24.23 432.66 40.38 424.59 40.38 424.59 104.98 432.66 104.98 432.66 121.13 440.74 121.13 440.74 129.21 448.81 129.21 448.81 137.28 456.89 137.28 456.89 145.36 464.97 145.36 464.97 153.43 481.12 153.43 481.12 161.51 497.27 161.51 513.42 161.51 513.42 153.43 521.49 153.43 529.57 153.43 529.57 145.36 537.64 145.36 537.64 137.28 545.72 137.28 545.72 121.13 553.79 121.13 553.79 56.53 545.72 56.53"/><path class="cls-2" d="M521.49,40.38V24.23h-8.07V16.15H497.27V8.08H465v8.07H448.81v8.08h-8.07V40.38h-8.08V105h8.08v16.15h8.07v8.07H465v8.08h32.3V129.2h16.15v-8.07h8.07V105h8.08V40.38ZM497.27,56.53V105h-8.08v8.07H473V105H465V40.38H473V32.3h16.15v8.08h8.08Z"/><path class="cls-3" d="M497.27,105h-8.08v8.07h-8.07v8.08h16.15v-8.08h8.07V48.45h-8.07Zm8.07-88.83v8.08h8.08V16.15Zm-64.6,105h8.07v-8.08h-8.07Zm48.45-105h8.08V8.08H465v8.07H448.81v8.08h-8.07V40.38h-8.08V105h8.08V48.45h8.07V32.3h8.08V24.23H473V16.15Z"/><polygon class="cls-1" points="664.49 153.6 672.57 153.6 672.57 145.52 680.64 145.52 680.64 137.44 688.72 137.44 688.72 121.29 696.79 121.29 696.79 113.22 688.72 113.22 688.72 105.14 680.64 105.14 680.64 97.07 672.57 97.07 672.57 88.99 664.49 88.99 640.27 88.99 640.27 97.07 632.19 97.07 632.19 56.69 640.27 56.69 648.34 56.69 648.34 64.77 656.42 64.77 656.42 72.84 688.72 72.84 688.72 64.77 696.79 64.77 696.79 56.69 688.72 56.69 688.72 40.54 680.64 40.54 680.64 32.47 672.57 32.47 672.57 24.39 664.49 24.39 664.49 16.32 656.42 16.32 656.42 8.24 640.27 8.24 640.27 0.17 624.12 0.17 607.97 0.17 607.97 8.24 591.82 8.24 591.82 16.32 583.74 16.32 583.74 24.39 575.66 24.39 575.66 40.54 567.59 40.54 567.59 105.14 575.66 105.14 575.66 121.29 583.74 121.29 583.74 129.37 591.82 129.37 591.82 137.44 599.89 137.44 599.89 145.52 607.97 145.52 607.97 153.6 624.12 153.6 624.12 161.67 640.27 161.67 656.42 161.67 656.42 153.6 664.49 153.6"/><polygon class="cls-2" points="672.57 48.62 672.57 40.54 664.49 40.54 664.49 24.39 656.42 24.39 656.42 16.32 640.27 16.32 640.27 8.24 624.12 8.24 607.97 8.24 607.97 16.32 591.82 16.32 591.82 24.39 583.74 24.39 583.74 40.54 575.66 40.54 575.66 105.14 583.74 105.14 583.74 121.29 591.82 121.29 591.82 129.37 607.97 129.37 607.97 137.44 624.12 137.44 640.27 137.44 640.27 129.37 648.34 129.37 656.42 129.37 656.42 121.29 664.49 121.29 664.49 105.14 672.57 105.14 672.57 97.07 664.49 97.07 640.27 97.07 640.27 105.14 632.19 105.14 632.19 113.22 624.12 113.22 616.04 113.22 616.04 105.14 607.97 105.14 607.97 40.54 616.04 40.54 616.04 32.47 624.12 32.47 632.19 32.47 632.19 40.54 640.27 40.54 640.27 48.62 672.57 48.62"/><path class="cls-3" d="M583.74,121.29h8.07v-8.07h-8.07Zm80.75-24.22H640.27v8.07h-8.08v8.08h-8.07v8.07h16.15v-8.07h8.07v-8.08h24.23V97.07Zm-8.07-80.75h-8.08v8.07h8.08Zm-24.23,0h8.08V8.24H608v8.08H591.81v8.07h-8.07V40.54h-8.08v64.6h8.08V48.62h8.07V32.47h8.08V24.39H616V16.32Z"/><polygon class="cls-1" points="718.82 145.52 726.89 145.52 726.89 153.6 734.97 153.6 734.97 161.67 767.27 161.67 767.27 153.6 775.34 153.6 775.34 137.44 783.42 137.44 783.42 145.52 791.49 145.52 791.49 153.6 799.57 153.6 799.57 161.67 831.87 161.67 831.87 153.6 839.94 153.6 839.94 145.52 831.87 145.52 831.87 129.37 823.79 129.37 823.79 113.22 815.72 113.22 815.72 97.07 807.64 97.07 807.64 80.92 815.72 80.92 815.72 64.77 823.79 64.77 823.79 48.62 831.87 48.62 831.87 32.47 839.94 32.47 839.94 24.39 831.87 24.39 831.87 16.32 823.79 16.32 823.79 8.24 815.72 8.24 815.72 0.17 783.42 0.17 783.42 8.24 775.34 8.24 775.34 16.32 759.19 16.32 759.19 8.24 751.12 8.24 751.12 0.17 718.82 0.17 718.82 8.24 710.74 8.24 710.74 137.44 718.82 137.44 718.82 145.52"/><polygon class="cls-2" points="791.49 64.77 791.49 48.62 799.57 48.62 799.57 32.47 807.64 32.47 807.64 16.32 815.72 16.32 815.72 8.24 783.42 8.24 783.42 16.32 775.34 16.32 775.34 32.47 767.27 32.47 767.27 48.62 759.19 48.62 759.19 64.77 751.12 64.77 751.12 8.24 718.82 8.24 718.82 137.44 751.12 137.44 751.12 80.92 759.19 80.92 759.19 97.07 767.27 97.07 767.27 113.22 775.34 113.22 775.34 129.37 783.42 129.37 783.42 137.44 815.72 137.44 815.72 129.37 807.64 129.37 807.64 113.22 799.57 113.22 799.57 97.07 791.49 97.07 791.49 80.92 783.42 80.92 783.42 64.77 791.49 64.77"/><path class="cls-3" d="M783.42,8.24v8.08h-8.08V32.47h-8.07V48.62h-8.08V72.84h8.08V56.69h8.07V40.54h8.08V24.39h8.07V16.32h24.23V8.24Zm-8.08,96.9h-8.07v8.08h8.07ZM767.27,89h-8.08v8.08h8.08Zm-48.46,48.46h8.08V16.32h24.23V8.24H718.81Zm56.53-8.08h8.08v-8.08h-8.08Z"/><polygon class="cls-1" points="337.36 235.45 329.29 235.45 329.29 227.38 321.21 227.38 321.21 219.3 313.13 219.3 313.13 211.23 305.06 211.23 305.06 203.15 296.98 203.15 296.98 195.08 224.31 195.08 224.31 203.15 216.23 203.15 216.23 332.36 224.31 332.36 224.31 340.43 232.38 340.43 232.38 348.51 240.46 348.51 240.46 356.58 272.76 356.58 272.76 348.51 280.83 348.51 280.83 316.21 313.13 316.21 313.13 308.13 321.21 308.13 321.21 300.06 329.29 300.06 329.29 291.98 337.36 291.98 337.36 283.91 345.44 283.91 345.44 243.53 337.36 243.53 337.36 235.45"/><path class="cls-2" d="M313.13,227.38V219.3h-8.07v-8.07H297v-8.08H224.31V332.36h32.3V292H297v-8.07h8.08v-8.08h8.07v-8.08h8.08V227.38Zm-24.22,40.37h-8.08v8.08H256.61V219.3h24.22v8.08h8.08Z"/><path class="cls-3" d="M288.91,267.75h-8.08v8.08H264.68v8.08h24.23v-8.08H297V235.45h-8.07Zm-64.6-64.6V332.36h8.07V211.23H297v-8.08Z"/><polygon class="cls-1" points="475.36 235.45 467.29 235.45 467.29 227.38 459.21 227.38 459.21 219.3 451.13 219.3 451.13 211.23 443.06 211.23 443.06 203.15 434.98 203.15 434.98 195.08 386.53 195.08 386.53 203.15 378.46 203.15 378.46 211.23 370.38 211.23 370.38 219.3 367.31 219.3 367.31 227.38 359.23 227.38 359.23 332.36 367.31 332.36 367.31 340.43 375.38 340.43 375.38 348.51 383.46 348.51 383.46 356.58 415.76 356.58 415.76 348.51 423.83 348.51 423.83 332.36 431.91 332.36 431.91 340.43 439.98 340.43 439.98 348.51 448.06 348.51 448.06 356.58 475.36 356.58 475.36 348.51 483.44 348.51 483.44 243.53 475.36 243.53 475.36 235.45"/><path class="cls-2" d="M451.13,227.38V219.3h-8.07v-8.07H435v-8.08H386.53v8.08h-8.07v8.07h-8.08l5,8.08h-8.07v105h32.3V283.91h27.3l5,48.45h27.3v-105Zm-24.22,40.38h-27.3l-5-40.38h8.07V219.3h16.15v8.08h8.08Z"/><path class="cls-3" d="M386.53,203.15v8.08h-8.07v8.07h-8.08l5,8.08h-8.07v105h8.07V235.45h3.08v-8.07h8.07V219.3h8.08v-8.07H435v-8.08Zm45.38,129.21H435V292h-8.07Zm-5-64.6H402.68v8.07H435V235.45h-8.07Z"/><polygon class="cls-1" points="618.09 235.46 610.01 235.46 610.01 227.39 601.94 227.39 601.94 219.31 593.87 219.31 593.87 211.24 585.79 211.24 585.79 203.16 577.71 203.16 577.71 195.09 505.04 195.09 505.04 203.16 496.96 203.16 496.96 332.37 505.04 332.37 505.04 340.44 513.11 340.44 513.11 348.52 521.19 348.52 521.19 356.59 553.49 356.59 553.49 348.52 561.56 348.52 561.56 316.22 593.87 316.22 593.87 308.14 601.94 308.14 601.94 300.07 610.01 300.07 610.01 291.99 618.09 291.99 618.09 283.92 626.17 283.92 626.17 243.54 618.09 243.54 618.09 235.46"/><path class="cls-2" d="M593.86,227.39v-8.08h-8.07v-8.07h-8.08v-8.08H505V332.37h32.3V292h40.37v-8.07h8.08v-8.08h8.07v-8.07h8.08V227.39Zm-24.22,40.38h-8.08v8.07H537.34V219.31h24.22v8.08h8.08Z"/><path class="cls-3" d="M569.64,267.77h-8.08v8.07H545.41v8.08h24.23v-8.08h8.07V235.46h-8.07ZM505,203.16V332.37h8.07V211.24h64.6v-8.08Z"/><polygon class="cls-1" points="647.57 340.41 655.64 340.41 655.64 348.49 663.72 348.49 663.72 356.56 744.47 356.56 744.47 348.49 752.55 349.49 752.55 333.33 744.47 332.33 744.47 324.26 736.4 324.26 736.4 316.18 728.32 316.18 728.32 308.11 704.1 308.11 704.1 300.03 728.32 300.03 728.32 291.96 736.4 291.96 736.4 275.81 728.32 275.81 728.32 267.73 720.25 267.73 720.25 259.66 712.17 259.66 712.17 251.58 704.1 251.58 704.1 243.51 744.47 243.51 744.47 235.43 752.55 235.43 752.55 219.28 744.47 219.28 744.47 211.21 736.4 211.21 736.4 203.13 728.32 203.13 728.32 195.05 647.57 195.05 647.57 203.13 639.49 203.13 639.49 332.33 647.57 332.33 647.57 340.41"/><polygon class="cls-2" points="728.32 219.28 728.32 203.13 647.57 203.13 647.57 332.33 728.32 332.33 728.32 316.18 679.87 316.18 679.87 275.81 712.17 275.81 712.17 259.66 679.87 259.66 679.87 219.28 728.32 219.28"/><path class="cls-3" d="M647.57,203.13v129.2h8.08V211.2h72.67v-8.07ZM688,259.66v8.07h24.22v-8.07Zm0,64.6h40.37v-8.08H688Z"/><polygon class="cls-1" points="887.23 235.55 879.15 235.55 879.15 227.47 871.08 227.47 871.08 219.4 863 219.4 863 211.32 854.93 211.32 854.93 203.25 846.85 203.25 846.85 195.17 774.17 195.17 774.17 203.25 766.1 203.25 766.1 332.45 774.17 332.45 774.17 340.52 782.25 340.52 782.25 348.6 790.32 348.6 790.32 356.68 822.62 356.68 822.62 348.6 830.7 348.6 830.7 332.45 838.77 332.45 838.77 340.52 846.85 340.52 846.85 348.6 854.93 348.6 854.93 356.68 887.23 356.68 887.23 348.6 895.3 348.6 895.3 324.38 887.23 324.38 887.23 316.3 879.15 316.3 879.15 308.22 871.08 308.22 871.08 300.15 879.15 300.15 879.15 292.07 887.23 292.07 887.23 284 895.3 284 895.3 243.62 887.23 243.62 887.23 235.55"/><path class="cls-2" d="M863,227.47V219.4h-8.07v-8.08h-8.08v-8.07H774.17v129.2h32.3V292.07h16.15v8.08h8.08v8.07h8.07v24.23h32.31V308.22H863v-8.07h-8.07v-8.08h-8.08V284h8.08v-8.08H863v-8.07h8.08V227.47Zm-24.23,40.38H830.7v8.07H806.47V219.4H830.7v8.07h8.07Z"/><path class="cls-3" d="M774.17,203.25v129.2h8.08V211.32h64.6v-8.07Zm64.6,64.6H830.7v8.07H814.55V284h24.22v-8.08h8.08V235.55h-8.08Zm0,64.6h8.08V316.3h-8.08Z"/><polygon class="cls-1" points="16.15 414.75 8.07 414.75 8.07 430.9 0 430.9 0 447.05 8.07 447.05 8.07 455.13 16.15 455.13 16.15 463.2 24.23 463.2 24.23 471.28 32.3 471.28 32.3 479.35 8.07 479.35 8.07 487.43 0 487.43 0 495.5 8.07 495.5 8.07 511.65 16.15 511.65 16.15 519.73 24.23 519.73 24.23 527.8 32.3 527.8 32.3 535.88 40.38 535.88 40.38 543.96 56.53 543.96 56.53 552.03 72.68 552.03 88.83 552.03 88.83 543.96 104.98 543.96 104.98 535.88 113.05 535.88 113.05 527.8 121.13 527.8 121.13 511.65 129.21 511.65 129.21 495.5 121.13 495.5 121.13 487.43 113.05 487.43 113.05 479.35 104.98 479.35 104.98 471.28 96.9 471.28 96.9 463.2 121.13 463.2 121.13 455.13 129.21 455.13 129.21 447.05 121.13 447.05 121.13 430.9 113.05 430.9 113.05 422.83 104.98 422.83 104.98 414.75 96.9 414.75 96.9 406.68 88.83 406.68 88.83 398.6 72.68 398.6 72.68 390.52 56.53 390.52 40.38 390.52 40.38 398.6 24.23 398.6 24.23 406.68 16.15 406.68 16.15 414.75"/><rect class="cls-1" x="72.68" y="447.05" width="8.08" height="8.07"/><rect class="cls-1" x="48.45" y="487.43" width="8.08" height="8.07"/><polygon class="cls-2" points="104.98 438.98 104.98 430.9 96.9 430.9 96.9 414.75 88.83 414.75 88.83 406.68 72.68 406.68 72.68 398.6 56.53 398.6 40.38 398.6 40.38 406.68 24.23 406.68 24.23 414.75 16.15 414.75 16.15 430.9 8.07 430.9 8.07 447.05 16.15 447.05 16.15 455.13 24.23 455.13 24.23 463.2 40.38 463.2 40.38 471.28 56.53 471.28 56.53 479.35 64.6 479.35 64.6 487.43 72.68 487.43 72.68 495.5 64.6 495.5 64.6 503.58 56.53 503.58 48.45 503.58 48.45 495.5 40.38 495.5 40.38 487.43 8.07 487.43 8.07 495.5 16.15 495.5 16.15 511.65 24.23 511.65 24.23 519.73 40.38 519.73 40.38 527.8 56.53 527.8 72.68 527.8 72.68 519.73 88.83 519.73 88.83 511.65 96.9 511.65 96.9 495.5 104.98 495.5 104.98 479.35 96.9 479.35 96.9 471.28 88.83 471.28 88.83 463.2 72.68 463.2 72.68 455.13 56.53 455.13 56.53 447.05 48.45 447.05 48.45 438.98 40.38 438.98 40.38 430.9 48.45 430.9 48.45 422.82 56.53 422.82 64.6 422.83 64.6 430.9 72.68 430.9 72.68 438.98 104.98 438.98"/><path class="cls-3" d="M8.08,495.5h32.3v-8.07H8.08Zm8.07,16.15h8.08v-8.07H16.15Zm64.6-40.37h8.08V463.2H80.75ZM64.6,463.2h8.08v-8.07H64.6Zm0,40.38H56.53v8.07H72.68v-8.07h8.07V495.5H64.6Zm0-96.9h8.08V398.6H40.38v8.07H24.23v8.08H16.15V430.9H8.08v16.15h8.07V439h8.08V422.83H32.3v-8.08H48.45v-8.08Zm16.15,0v8.07h8.08v-8.07Z"/><polygon class="cls-1" points="240.59 544.31 248.66 544.31 248.66 536.23 256.74 536.23 256.74 528.16 264.81 528.16 264.81 512.01 272.89 512.01 272.89 503.93 264.81 503.93 264.81 495.86 256.74 495.86 256.74 487.78 248.66 487.78 248.66 479.71 240.59 479.71 216.36 479.71 216.36 487.78 208.29 487.78 208.29 447.4 216.36 447.4 224.44 447.41 224.44 455.48 232.51 455.48 232.51 463.56 264.81 463.56 264.81 455.48 272.89 455.48 272.89 447.4 264.81 447.4 264.81 431.25 256.74 431.25 256.74 423.18 248.66 423.18 248.66 415.1 240.59 415.1 240.59 407.03 232.51 407.03 232.51 398.95 216.36 398.95 216.36 390.88 200.21 390.88 184.06 390.88 184.06 398.95 167.91 398.95 167.91 407.03 159.84 407.03 159.84 415.1 151.76 415.1 151.76 431.25 143.68 431.25 143.68 495.86 151.76 495.86 151.76 512.01 159.84 512.01 159.84 520.08 167.91 520.08 167.91 528.16 175.99 528.16 175.99 536.23 184.06 536.23 184.06 544.31 200.21 544.31 200.21 552.38 216.36 552.38 232.51 552.38 232.51 544.31 240.59 544.31"/><polygon class="cls-2" points="248.66 439.33 248.66 431.25 240.59 431.25 240.59 415.1 232.51 415.1 232.51 407.03 216.36 407.03 216.36 398.95 200.21 398.95 184.06 398.95 184.06 407.03 167.91 407.03 167.91 415.1 159.84 415.1 159.84 431.25 151.76 431.25 151.76 495.86 159.84 495.86 159.84 512.01 167.91 512.01 167.91 520.08 184.06 520.08 184.06 528.16 200.21 528.16 216.36 528.16 216.36 520.08 224.44 520.08 232.51 520.08 232.51 512.01 240.59 512.01 240.59 495.86 248.66 495.86 248.66 487.78 240.59 487.78 216.36 487.78 216.36 495.86 208.29 495.86 208.29 503.93 200.21 503.93 192.14 503.93 192.14 495.86 184.06 495.86 184.06 431.25 192.14 431.25 192.14 423.18 200.21 423.18 208.29 423.18 208.29 431.25 216.36 431.25 216.36 439.33 248.66 439.33"/><path class="cls-3" d="M159.83,512h8.08v-8.08h-8.08Zm80.76-24.23H216.36v8.08h-8.07v8.07h-8.08V512h16.15v-8.08h8.08v-8.07h24.22v-8.08ZM232.51,407h-8.07v8.07h8.07Zm-24.22,0h8.07V399h-32.3V407H167.91v8.07h-8.08v16.15h-8.07v64.61h8.07V439.33h8.08V423.18H176V415.1h16.15V407Z"/><polygon class="cls-1" points="375.95 552.38 375.95 544.31 384.03 544.31 384.03 528.16 375.95 528.16 375.95 520.08 367.88 520.08 367.88 439.33 375.95 439.33 375.95 431.25 384.03 431.25 384.03 415.1 375.95 415.1 375.95 407.03 367.88 407.03 367.88 398.95 359.8 398.95 359.8 390.88 295.2 390.88 295.2 398.95 287.13 398.95 287.13 415.1 295.2 415.1 295.2 423.18 303.28 423.18 303.28 503.93 295.2 503.93 295.2 512.01 287.13 512.01 287.13 528.16 295.2 528.16 295.2 536.23 303.28 536.23 303.28 544.31 311.35 544.31 311.35 552.38 375.95 552.38"/><polygon class="cls-2" points="295.2 398.95 295.2 415.1 311.35 415.1 311.35 512.01 295.2 512.01 295.2 528.16 359.8 528.16 359.8 512.01 343.65 512.01 343.65 415.1 359.8 415.1 359.8 398.95 295.2 398.95"/><path class="cls-3" d="M351.73,520.08h8.07V512h-8.07ZM295.2,399V415.1h8.08V407H359.8V399ZM311.35,512H295.2v16.15h8.08v-8.08h16.15v-96.9h-8.08Z"/><polygon class="cls-1" points="414.13 414.94 406.05 414.94 406.05 431.09 397.98 431.09 397.98 447.24 406.05 447.24 406.05 455.31 414.13 455.31 414.13 463.39 422.2 463.39 422.2 471.46 430.28 471.46 430.28 479.54 406.05 479.54 406.05 487.62 397.98 487.62 397.98 495.69 406.05 495.69 406.05 511.84 414.13 511.84 414.13 519.92 422.2 519.92 422.2 527.99 430.28 527.99 430.28 536.07 438.35 536.07 438.35 544.14 454.5 544.14 454.5 552.22 470.65 552.22 486.81 552.22 486.81 544.14 502.95 544.14 502.95 536.07 511.03 536.07 511.03 527.99 519.11 527.99 519.11 511.84 527.18 511.84 527.18 495.69 519.11 495.69 519.11 487.62 511.03 487.62 511.03 479.54 502.95 479.54 502.95 471.46 494.88 471.46 494.88 463.39 519.11 463.39 519.11 455.31 527.18 455.31 527.18 447.24 519.11 447.24 519.11 431.09 511.03 431.09 511.03 423.01 502.95 423.01 502.95 414.94 494.88 414.94 494.88 406.86 486.81 406.86 486.81 398.79 470.65 398.79 470.65 390.71 454.5 390.71 438.35 390.71 438.35 398.79 422.2 398.79 422.2 406.86 414.13 406.86 414.13 414.94"/><rect class="cls-1" x="470.65" y="447.24" width="8.08" height="8.07"/><rect class="cls-1" x="446.43" y="487.62" width="8.08" height="8.07"/><polygon class="cls-2" points="502.95 439.16 502.95 431.09 494.88 431.09 494.88 414.94 486.81 414.94 486.81 406.86 470.65 406.86 470.65 398.79 454.5 398.79 438.35 398.79 438.35 406.86 422.2 406.86 422.2 414.94 414.13 414.94 414.13 431.09 406.05 431.09 406.05 447.24 414.13 447.24 414.13 455.31 422.2 455.31 422.2 463.39 438.35 463.39 438.35 471.46 454.5 471.46 454.5 479.54 462.58 479.54 462.58 487.62 470.65 487.62 470.65 495.69 462.58 495.69 462.58 503.77 454.5 503.77 446.43 503.76 446.43 495.69 438.35 495.69 438.35 487.62 406.05 487.62 406.05 495.69 414.13 495.69 414.13 511.84 422.2 511.84 422.2 519.92 438.35 519.92 438.35 527.99 454.5 527.99 470.65 527.99 470.65 519.92 486.81 519.92 486.81 511.84 494.88 511.84 494.88 495.69 502.95 495.69 502.95 479.54 494.88 479.54 494.88 471.46 486.81 471.46 486.81 463.39 470.65 463.39 470.65 455.31 454.5 455.31 454.5 447.24 446.43 447.24 446.43 439.16 438.35 439.16 438.35 431.09 446.43 431.09 446.43 423.01 454.5 423.01 462.58 423.01 462.58 431.09 470.65 431.09 470.65 439.16 502.95 439.16"/><path class="cls-3" d="M406.05,495.69h32.3v-8.07h-32.3Zm8.08,16.15h8.07v-8.07h-8.07Zm64.6-40.38h8.07v-8.07h-8.07Zm-16.15-8.07h8.07v-8.08h-8.07Zm0,40.38H454.5v8.07h16.15v-8.07h8.08v-8.08H462.58Zm0-96.91h8.07v-8.07h-32.3v8.07H422.2v8.08h-8.07v16.15h-8.08v16.15h8.08v-8.08h8.07V423h8.08v-8.07h16.15v-8.08Zm16.15,0v8.08h8.07v-8.08Z"/><polygon class="cls-1" points="986.6 413.94 978.52 413.94 978.52 430.09 970.45 430.09 970.45 446.24 978.52 446.24 978.52 454.31 986.6 454.31 986.6 462.39 994.67 462.39 994.67 470.46 1002.75 470.46 1002.75 478.54 978.52 478.54 978.52 486.62 970.45 486.62 970.45 494.69 978.52 494.69 978.52 510.84 986.6 510.84 986.6 518.92 994.67 518.92 994.67 526.99 1002.75 526.99 1002.75 535.07 1010.82 535.07 1010.82 543.14 1026.97 543.14 1026.97 551.22 1043.12 551.22 1059.28 551.22 1059.28 543.14 1075.42 543.14 1075.42 535.07 1083.5 535.07 1083.5 526.99 1091.58 526.99 1091.58 510.84 1099.65 510.84 1099.65 494.69 1091.58 494.69 1091.58 486.62 1083.5 486.62 1083.5 478.54 1075.42 478.54 1075.42 470.46 1067.35 470.46 1067.35 462.39 1091.58 462.39 1091.58 454.31 1099.65 454.31 1099.65 446.24 1091.58 446.24 1091.58 430.09 1083.5 430.09 1083.5 422.01 1075.42 422.01 1075.42 413.94 1067.35 413.94 1067.35 405.86 1059.28 405.86 1059.28 397.79 1043.12 397.79 1043.12 389.71 1026.97 389.71 1010.82 389.71 1010.82 397.79 994.67 397.79 994.67 405.86 986.6 405.86 986.6 413.94"/><rect class="cls-1" x="1043.12" y="446.24" width="8.08" height="8.07"/><rect class="cls-1" x="1018.9" y="486.62" width="8.08" height="8.07"/><polygon class="cls-2" points="1075.42 438.16 1075.42 430.09 1067.35 430.09 1067.35 413.94 1059.28 413.94 1059.28 405.86 1043.12 405.86 1043.12 397.79 1026.97 397.79 1010.82 397.79 1010.82 405.86 994.67 405.86 994.67 413.94 986.6 413.94 986.6 430.09 978.52 430.09 978.52 446.24 986.6 446.24 986.6 454.31 994.67 454.31 994.67 462.39 1010.82 462.39 1010.82 470.46 1026.97 470.46 1026.97 478.54 1035.05 478.54 1035.05 486.62 1043.12 486.62 1043.12 494.69 1035.05 494.69 1035.05 502.77 1026.97 502.77 1018.9 502.76 1018.9 494.69 1010.82 494.69 1010.82 486.62 978.52 486.62 978.52 494.69 986.6 494.69 986.6 510.84 994.67 510.84 994.67 518.92 1010.82 518.92 1010.82 526.99 1026.97 526.99 1043.12 526.99 1043.12 518.92 1059.28 518.92 1059.28 510.84 1067.35 510.84 1067.35 494.69 1075.42 494.69 1075.42 478.54 1067.35 478.54 1067.35 470.46 1059.28 470.46 1059.28 462.39 1043.12 462.39 1043.12 454.31 1026.97 454.31 1026.97 446.24 1018.9 446.24 1018.9 438.16 1010.82 438.16 1010.82 430.09 1018.9 430.09 1018.9 422.01 1026.97 422.01 1035.05 422.01 1035.05 430.09 1043.12 430.09 1043.12 438.16 1075.42 438.16"/><path class="cls-3" d="M978.52,494.69h32.3v-8.07h-32.3Zm8.08,16.15h8.07v-8.07H986.6Zm64.6-40.38h8.07v-8.07h-8.07Zm-16.15-8.07h8.07v-8.08h-8.07Zm0,40.38H1027v8.07h16.15v-8.07h8.08v-8.08h-16.15Zm0-96.91h8.07v-8.07h-32.3v8.07H994.67v8.08H986.6v16.15h-8.08v16.15h8.08v-8.08h8.07V422h8.08v-8.07h16.15v-8.08Zm16.15,0v8.08h8.07v-8.08Z"/><polyline class="cls-1" points="684.54 430.38 684.54 494.99 692.62 494.99 692.62 511.14 700.69 511.14 700.69 519.21 708.77 519.21 708.77 527.29 716.84 527.29 716.84 535.36 724.92 535.36 724.92 543.44 741.07 543.44 741.07 551.51 757.22 551.51 773.37 551.51 773.37 543.44 781.45 543.44 789.52 543.44 789.52 535.36 797.6 535.36 797.6 527.29 805.67 527.29 805.67 511.14 813.75 511.14 813.75 446.53 805.67 446.53 805.67 430.38 797.6 430.38 797.6 422.31 789.52 422.31 789.52 414.23 781.45 414.23 781.45 406.16 773.37 406.16 773.37 398.08 757.22 398.08 757.22 390.01 741.07 390.01 724.92 390.01 724.92 398.08 708.77 398.08 708.77 406.16 700.69 406.16 700.69 414.23 692.62 414.23 692.62 430.38 684.54 430.38"/><path class="cls-2" d="M781.45,430.38V414.23h-8.08v-8.07H757.22v-8.08h-32.3v8.08H708.77v8.07h-8.08v16.15h-8.07V495h8.07v16.15h8.08v8.07h16.15v8.08h32.3v-8.08h16.15v-8.07h8.08V495h8.07V430.38Zm-24.23,16.15V495h-8.07v8.07H733V495h-8.07V430.38H733v-8.07h16.16v8.07h8.07Z"/><path class="cls-3" d="M757.22,495h-8.07v8.07h-8.08v8.08h16.15v-8.08h8.08v-64.6h-8.08Zm8.08-88.83v8.07h8.07v-8.07Zm-64.61,105h8.08v-8.08h-8.08Zm48.46-105h8.07v-8.08h-32.3v8.08H708.77v8.07h-8.08v16.15h-8.07V495h8.07V438.46h8.08V422.31h8.07v-8.08H733v-8.07Z"/><polygon class="cls-1" points="948.28 430.48 940.21 430.48 940.21 422.4 932.13 422.4 932.13 414.32 924.06 414.32 924.06 406.25 915.98 406.25 915.98 398.18 907.91 398.18 907.91 390.1 835.23 390.1 835.23 398.18 827.15 398.18 827.15 527.38 835.23 527.38 835.23 535.46 843.3 535.46 843.3 543.53 851.38 543.53 851.38 551.61 883.68 551.61 883.68 543.53 891.75 543.53 891.75 527.38 899.83 527.38 899.83 535.46 907.91 535.46 907.91 543.53 915.98 543.53 915.98 551.61 948.28 551.61 948.28 543.53 956.36 543.53 956.36 519.3 948.28 519.3 948.28 511.23 940.21 511.23 940.21 503.15 932.13 503.15 932.13 495.08 940.21 495.08 940.21 487 948.28 487 948.28 478.93 956.36 478.93 956.36 438.55 948.28 438.55 948.28 430.48"/><path class="cls-2" d="M924.06,422.4v-8.07H916v-8.08h-8.07v-8.08H835.23V527.38h32.3V487h16.15v8.08h8.08v8.07h8.07v24.23h32.3V503.15h-8.07v-8.07H916V487h-8.07v-8.07H916v-8.08h8.08v-8.07h8.07V422.4Zm-24.23,40.38h-8.07v8.07H867.53V414.33h24.23v8.07h8.07Z"/><path class="cls-3" d="M835.23,398.17V527.38h8.07V406.25h64.61v-8.08Zm64.6,64.61h-8.07v8.07H875.6v8.08h24.23v-8.08h8.08V430.48h-8.08Zm0,64.6h8.08V511.23h-8.08Z"/><polygon class="cls-1" points="556.99 414.98 548.91 414.98 548.91 431.13 540.83 431.13 540.83 447.29 548.91 447.29 548.91 455.36 556.99 455.36 556.99 463.44 565.06 463.44 565.06 471.51 573.13 471.51 573.13 479.59 548.91 479.59 548.91 487.66 540.83 487.66 540.83 495.74 548.91 495.74 548.91 511.89 556.99 511.89 556.99 519.96 565.06 519.96 565.06 528.04 573.13 528.04 573.13 536.11 581.21 536.11 581.21 544.19 597.36 544.19 597.36 552.26 613.51 552.26 629.66 552.26 629.66 544.19 645.81 544.19 645.81 536.11 653.89 536.11 653.89 528.04 661.96 528.04 661.96 511.89 670.04 511.89 670.04 495.74 661.96 495.74 661.96 487.66 653.89 487.66 653.89 479.59 645.81 479.59 645.81 471.51 637.74 471.51 637.74 463.44 661.96 463.44 661.96 455.36 670.04 455.36 670.04 447.29 661.96 447.29 661.96 431.13 653.89 431.13 653.89 423.06 645.81 423.06 645.81 414.99 637.74 414.99 637.74 406.91 629.66 406.91 629.66 398.83 613.51 398.83 613.51 390.76 597.36 390.76 581.21 390.76 581.21 398.83 565.06 398.83 565.06 406.91 556.99 406.91 556.99 414.98"/><rect class="cls-1" x="613.51" y="447.29" width="8.08" height="8.07"/><rect class="cls-1" x="589.29" y="487.66" width="8.08" height="8.07"/><polygon class="cls-2" points="645.81 439.21 645.81 431.13 637.74 431.13 637.74 414.99 629.66 414.99 629.66 406.91 613.51 406.91 613.51 398.83 597.36 398.83 581.21 398.83 581.21 406.91 565.06 406.91 565.06 414.98 556.99 414.98 556.99 431.13 548.91 431.13 548.91 447.29 556.99 447.29 556.99 455.36 565.06 455.36 565.06 463.44 581.21 463.44 581.21 471.51 597.36 471.51 597.36 479.59 605.44 479.59 605.44 487.66 613.51 487.66 613.51 495.74 605.44 495.74 605.44 503.81 597.36 503.81 589.29 503.81 589.29 495.74 581.21 495.74 581.21 487.66 548.91 487.66 548.91 495.74 556.99 495.74 556.99 511.89 565.06 511.89 565.06 519.96 581.21 519.96 581.21 528.04 597.36 528.04 613.51 528.04 613.51 519.96 629.66 519.96 629.66 511.89 637.74 511.89 637.74 495.74 645.81 495.74 645.81 479.59 637.74 479.59 637.74 471.51 629.66 471.51 629.66 463.44 613.51 463.44 613.51 455.36 597.36 455.36 597.36 447.29 589.29 447.29 589.29 439.21 581.21 439.21 581.21 431.13 589.29 431.13 589.29 423.06 597.36 423.06 605.44 423.06 605.44 431.13 613.51 431.13 613.51 439.21 645.81 439.21"/><path class="cls-3" d="M548.91,495.74h32.3v-8.08h-32.3ZM557,511.89h8.08v-8.08H557Zm64.61-40.38h8.07v-8.07h-8.07Zm-16.15-8.07h8.07v-8.08h-8.07Zm0,40.37h-8.08v8.08h16.15v-8.08h8.08v-8.07H605.44Zm0-96.9h8.07v-8.08h-32.3v8.08H565.06V415H557v16.15h-8.07v16.16H557v-8.08h8.08V423.06h8.08V415h16.15v-8.07Zm16.15,0V415h8.07v-8.07Z"/></svg>