<?xml version="1.0" encoding="utf-8"?>
<!-- Generator: Adobe Illustrator 26.3.1, SVG Export Plug-In . SVG Version: 6.00 Build 0)  -->
<svg version="1.1" id="Layer_6" xmlns="http://www.w3.org/2000/svg" xmlns:xlink="http://www.w3.org/1999/xlink" x="0px" y="0px"
	 viewBox="0 0 132.6 123.1" style="enable-background:new 0 0 132.6 123.1;" xml:space="preserve">
<style type="text/css">
	.st0{fill:#D814AB;}
	.st1{fill:#F2E68E;}
	.st2{fill:#14181F;}
</style>
<polygon class="st0" points="119.3,92 128.7,92 128.7,104.1 119.3,104.1 119.3,101.4 "/>
<rect x="119.3" y="18.9" class="st0" width="9.4" height="7.5"/>
<rect x="119.3" y="26.4" class="st0" width="9.4" height="9.4"/>
<rect x="119.3" y="35.8" class="st0" width="9.4" height="9.3"/>
<rect x="119.3" y="45.1" class="st0" width="9.4" height="9.4"/>
<rect x="119.3" y="54.5" class="st0" width="9.4" height="9.4"/>
<rect x="119.3" y="63.9" class="st0" width="9.4" height="9.4"/>
<rect x="119.3" y="73.3" class="st0" width="9.4" height="9.4"/>
<polygon class="st0" points="119.3,82.6 128.7,82.6 128.7,92 119.3,92 119.3,92 "/>
<polygon class="st0" points="110,101.4 119.3,101.4 119.3,104.1 119.3,113.6 110,113.6 110,110.8 "/>
<polygon class="st0" points="119.3,18.9 108.9,18.9 108.9,7.7 110,7.7 110.1,6.9 119.3,13.7 "/>
<polygon class="st0" points="108.9,7.7 108.9,6 110.1,6.9 110,7.7 "/>
<polygon class="st0" points="100.6,120.1 100.6,110.8 110,110.8 110,113.6 110,120.1 "/>
<polygon class="st0" points="110.1,6.9 108.9,6 108.9,7.7 100.6,7.7 101.6,1.3 111,1.3 "/>
<polygon class="st0" points="92.3,1.3 101.6,1.3 100.6,7.7 91.2,7.7 "/>
<rect x="91.2" y="110.8" class="st0" width="9.4" height="9.4"/>
<rect x="91.2" y="45.1" class="st0" width="9.4" height="9.4"/>
<polygon class="st0" points="92.3,1.3 91.2,7.7 82.9,7.7 82.9,1.3 "/>
<rect x="81.9" y="110.8" class="st0" width="9.4" height="9.4"/>
<rect x="81.9" y="45.1" class="st0" width="9.4" height="9.4"/>
<polygon class="st0" points="82.9,1.3 82.9,7.7 81.9,7.7 "/>
<polygon class="st0" points="73.5,10.7 73.5,1.3 82.9,1.3 81.9,7.7 82.9,7.7 82.9,10.7 "/>
<rect x="72.5" y="110.8" class="st0" width="9.4" height="9.4"/>
<rect x="72.5" y="35.8" class="st0" width="9.4" height="9.3"/>
<polygon class="st0" points="63.2,7.7 64.2,1.3 73.5,1.3 72.5,7.7 "/>
<rect x="63.2" y="110.8" class="st0" width="9.4" height="9.4"/>
<rect x="63.2" y="26.4" class="st0" width="9.4" height="9.4"/>
<polygon class="st0" points="53.8,7.7 54.8,1.3 64.2,1.3 63.2,7.7 "/>
<rect x="53.8" y="110.8" class="st0" width="9.4" height="9.4"/>
<rect x="53.8" y="73.3" class="st0" width="9.4" height="9.4"/>
<rect x="53.8" y="35.8" class="st0" width="9.4" height="9.3"/>
<rect x="53.8" y="26.4" class="st0" width="9.4" height="9.4"/>
<rect x="53.8" y="63.9" class="st0" width="9.4" height="9.4"/>
<rect x="53.8" y="92" class="st0" width="9.4" height="9.4"/>
<rect x="53.8" y="101.4" class="st0" width="9.4" height="9.4"/>
<polygon class="st0" points="44.5,7.7 45.5,1.3 54.8,1.3 53.8,7.7 "/>
<rect x="44.5" y="110.8" class="st0" width="9.3" height="9.4"/>
<rect x="44.5" y="82.6" class="st0" width="9.3" height="9.4"/>
<rect x="44.5" y="54.5" class="st0" width="9.3" height="9.4"/>
<rect x="44.5" y="45.1" class="st0" width="9.3" height="9.4"/>
<polygon class="st0" points="35.1,7.7 36.1,1.3 45.5,1.3 44.5,7.7 "/>
<rect x="35.1" y="110.8" class="st0" width="9.4" height="9.4"/>
<rect x="35.1" y="82.6" class="st0" width="9.4" height="9.4"/>
<rect x="35.1" y="54.5" class="st0" width="9.4" height="9.4"/>
<polygon class="st0" points="44.5,45.1 35.1,45.1 35.1,35.8 35.1,26.4 35.1,17.1 35.1,7.7 44.5,7.7 53.8,7.7 63.2,7.7 72.5,7.7 
	73.5,1.3 73.5,10.7 82.9,10.7 82.9,7.7 91.2,7.7 100.6,7.7 108.9,7.7 108.9,18.9 119.3,18.9 119.3,26.4 119.3,35.8 119.3,45.1 
	119.3,54.5 119.3,63.9 119.3,73.3 119.3,82.6 119.3,92 119.3,92 119.3,101.4 110,101.4 110,110.8 100.6,110.8 91.2,110.8 
	81.9,110.8 72.5,110.8 63.2,110.8 63.2,101.4 63.2,92 53.8,92 53.8,82.6 63.2,82.6 63.2,73.3 63.2,63.9 53.8,63.9 53.8,54.5 
	53.8,45.1 63.2,45.1 63.2,35.8 72.5,35.8 72.5,45.1 81.9,45.1 81.9,54.5 91.2,54.5 100.6,54.5 100.6,45.1 91.2,45.1 81.9,45.1 
	81.9,35.8 72.5,35.8 72.5,26.4 63.2,26.4 53.8,26.4 53.8,35.8 53.8,45.1 "/>
<rect x="35.1" y="45.1" class="st0" width="9.4" height="9.4"/>
<rect x="28.5" y="110.8" class="st0" width="6.7" height="9.4"/>
<polygon class="st0" points="35.1,110.8 28.5,110.8 28.5,101.4 25.8,101.4 25.8,92 35.1,92 44.5,92 53.8,92 53.8,101.4 53.8,110.8 
	44.5,110.8 "/>
<rect x="25.8" y="82.6" class="st0" width="9.4" height="9.4"/>
<rect x="25.8" y="54.5" class="st0" width="9.4" height="9.4"/>
<rect x="25.8" y="35.8" class="st0" width="9.4" height="9.3"/>
<polygon class="st0" points="25.8,7.7 26.8,1.3 36.1,1.3 35.1,7.7 "/>
<rect x="25.8" y="7.7" class="st0" width="9.4" height="9.4"/>
<rect x="25.8" y="17.1" class="st0" width="9.4" height="9.4"/>
<rect x="25.8" y="26.4" class="st0" width="9.4" height="9.4"/>
<polygon class="st0" points="28.5,101.4 28.5,110.8 19,110.8 19,101.4 25.8,101.4 "/>
<polygon class="st0" points="19,101.4 19,92 25.8,92 25.8,101.4 "/>
<polygon class="st0" points="35.1,82.6 25.8,82.6 19,82.6 19,73.3 19.4,73.3 19.4,63.9 25.8,63.9 35.1,63.9 44.5,63.9 53.8,63.9 
	53.8,73.3 53.8,82.6 44.5,82.6 "/>
<polygon class="st0" points="25.8,92 19,92 19,82.6 19,82.6 25.8,82.6 "/>
<rect x="16.4" y="26.4" class="st0" width="9.4" height="9.4"/>
<polygon class="st0" points="17.4,1.3 26.8,1.3 25.8,7.7 16.4,7.7 "/>
<polygon class="st0" points="16.4,63.9 16.4,54.5 25.8,54.5 25.8,63.9 19.4,63.9 "/>
<polygon class="st0" points="19,82.6 7.1,82.6 10.9,82.6 10.9,73.3 19,73.3 "/>
<polygon class="st0" points="7.1,54.5 7.1,45.1 7.1,45.1 9.5,37.9 9.5,35.8 16.4,35.8 25.8,35.8 25.8,45.1 35.1,45.1 35.1,54.5 
	25.8,54.5 16.4,54.5 9.5,54.5 "/>
<polygon class="st0" points="9.5,63.9 9.5,54.5 16.4,54.5 16.4,63.9 10.1,63.9 "/>
<polygon class="st0" points="9.5,35.8 9.5,26.4 16.4,26.4 16.4,35.8 "/>
<polygon class="st0" points="15.1,7.7 14.1,10.7 13.8,10.7 "/>
<polygon class="st0" points="15.1,7.7 7.1,7.7 11.1,7.7 11.1,1.3 16.4,1.3 16.4,7.7 "/>
<polygon class="st0" points="19,73.3 10.9,73.3 10.1,73.3 10.1,73.2 10.1,63.9 16.4,63.9 19.4,63.9 19.4,73.3 "/>
<polygon class="st0" points="15.1,7.7 16.4,7.7 25.8,7.7 25.8,17.1 25.8,26.4 16.4,26.4 9.5,26.4 9.5,26.4 10.1,26.4 10.1,17.1 
	10.1,17.1 11.1,17.1 13.8,10.7 14.1,10.7 "/>
<polygon class="st0" points="9.5,26.4 0.7,26.4 0.7,17.1 1.7,17.1 10.1,17.1 10.1,17.1 10.1,26.4 "/>
<polygon class="st0" points="10.1,17.1 1.7,17.1 1.7,10.7 13.8,10.7 11.1,17.1 "/>
<polygon class="st0" points="7.1,45.1 7.1,54.5 6.2,52.1 5.4,46.1 "/>
<polygon class="st0" points="7.1,41.4 9.5,37.9 7.1,45.1 5.4,46.1 "/>
<rect x="66.2" y="103.8" class="st1" width="9.4" height="9.5"/>
<rect x="28.5" y="104.1" class="st1" width="9.4" height="9.5"/>
<rect x="66.2" y="94.6" class="st1" width="9.4" height="9.5"/>
<rect x="28.5" y="94.6" class="st1" width="9.4" height="9.5"/>
<rect x="56.8" y="85.1" class="st1" width="9.4" height="9.5"/>
<rect x="66.2" y="75.7" class="st1" width="9.4" height="9.5"/>
<polygon class="st1" points="19,85.2 28.4,85.2 28.4,75.7 19,75.7 "/>
<rect x="66.2" y="66.4" class="st1" width="9.4" height="9.5"/>
<polygon class="st1" points="19,75.7 19,75.7 28.4,75.7 28.4,66.2 19,66.2 "/>
<rect x="56.8" y="56.9" class="st1" width="9.4" height="9.5"/>
<rect x="48.4" y="55.9" class="st1" width="9.4" height="9.5"/>
<rect x="39" y="55.9" class="st1" width="9.4" height="9.5"/>
<rect x="113.4" y="47.4" class="st1" width="9.4" height="9.5"/>
<rect x="56.8" y="47.4" class="st1" width="9.4" height="9.5"/>
<polygon class="st1" points="9.5,56.8 19,56.8 19,47.3 19,47.3 9.5,47.3 "/>
<rect x="85.1" y="37.9" class="st1" width="9.4" height="9.5"/>
<rect x="66.2" y="37.9" class="st1" width="9.4" height="9.5"/>
<rect x="37.9" y="37.8" class="st1" width="9.4" height="9.5"/>
<polygon class="st1" points="9.5,47.3 19,47.3 19,37.9 19,37.9 9.5,37.9 "/>
<rect x="75.7" y="28.4" class="st1" width="9.4" height="9.5"/>
<rect x="37.9" y="28.4" class="st1" width="9.4" height="9.5"/>
<rect x="29.5" y="27.4" class="st1" width="9.4" height="9.5"/>
<rect x="37.9" y="18.9" class="st1" width="9.4" height="9.5"/>
<polygon class="st1" points="9.5,28.4 19,28.4 19,18.9 19,18.9 9.5,18.9 "/>
<rect x="37.9" y="9.4" class="st1" width="9.4" height="9.5"/>
<polygon class="st1" points="9.5,18.9 19,18.9 19,9.4 19,9.4 9.5,9.4 "/>
<rect x="104.2" y="113.6" class="st2" width="9.5" height="9.5"/>
<rect x="94.7" y="113.6" class="st2" width="9.5" height="9.5"/>
<rect x="85.2" y="113.6" class="st2" width="9.5" height="9.5"/>
<rect x="75.7" y="113.6" class="st2" width="9.5" height="9.5"/>
<rect x="66.3" y="113.6" class="st2" width="9.5" height="9.5"/>
<rect x="56.8" y="113.6" class="st2" width="9.5" height="9.5"/>
<rect x="47.4" y="113.6" class="st2" width="9.4" height="9.5"/>
<rect x="37.9" y="113.6" class="st2" width="9.5" height="9.5"/>
<rect x="28.4" y="113.6" class="st2" width="9.5" height="9.5"/>
<rect x="113.6" y="104.1" class="st2" width="9.5" height="9.5"/>
<rect x="56.8" y="104.1" class="st2" width="9.5" height="9.5"/>
<rect x="19" y="104.1" class="st2" width="9.5" height="9.5"/>
<rect x="123.1" y="94.6" class="st2" width="9.5" height="9.5"/>
<rect x="56.8" y="94.6" class="st2" width="9.5" height="9.5"/>
<rect x="19" y="94.6" class="st2" width="9.5" height="9.5"/>
<rect x="123.1" y="85.2" class="st2" width="9.5" height="9.5"/>
<rect x="47.4" y="85.2" class="st2" width="9.4" height="9.5"/>
<rect x="37.9" y="85.2" class="st2" width="9.5" height="9.5"/>
<rect x="28.4" y="85.2" class="st2" width="9.5" height="9.5"/>
<rect x="19" y="85.2" class="st2" width="9.5" height="9.5"/>
<rect x="123.1" y="75.7" class="st2" width="9.5" height="9.5"/>
<rect x="56.8" y="75.7" class="st2" width="9.5" height="9.5"/>
<polygon class="st2" points="9.5,85.2 19,85.2 19,75.7 9.5,75.7 9.5,85.1 "/>
<rect x="123.1" y="66.2" class="st2" width="9.5" height="9.5"/>
<rect x="56.8" y="66.2" class="st2" width="9.5" height="9.5"/>
<polygon class="st2" points="9.5,75.7 9.5,75.7 19,75.7 19,66.2 9.5,66.2 "/>
<rect x="123.1" y="56.8" class="st2" width="9.5" height="9.5"/>
<rect x="47.4" y="56.8" class="st2" width="9.4" height="9.5"/>
<rect x="37.9" y="56.8" class="st2" width="9.5" height="9.5"/>
<rect x="28.4" y="56.8" class="st2" width="9.5" height="9.5"/>
<rect x="19" y="56.8" class="st2" width="9.5" height="9.5"/>
<polygon class="st2" points="9.5,66.2 19,66.2 19,56.8 9.5,56.8 "/>
<rect x="123.1" y="47.3" class="st2" width="9.5" height="9.5"/>
<rect x="104.2" y="47.3" class="st2" width="9.5" height="9.5"/>
<rect x="94.7" y="47.3" class="st2" width="9.5" height="9.5"/>
<rect x="85.2" y="47.3" class="st2" width="9.5" height="9.5"/>
<rect x="47.4" y="47.3" class="st2" width="9.4" height="9.5"/>
<rect x="37.9" y="47.3" class="st2" width="9.5" height="9.5"/>
<polygon class="st2" points="0,56.7 9.5,56.7 9.5,47.3 9.5,47.3 0,47.3 "/>
<rect x="123.1" y="37.9" class="st2" width="9.5" height="9.4"/>
<rect x="75.7" y="37.9" class="st2" width="9.5" height="9.4"/>
<rect x="56.8" y="37.9" class="st2" width="9.5" height="9.4"/>
<rect x="28.4" y="37.9" class="st2" width="9.5" height="9.4"/>
<polygon class="st2" points="0,47.3 9.5,47.3 9.5,37.9 9.5,37.8 0,37.8 "/>
<rect x="123.1" y="28.4" class="st2" width="9.5" height="9.5"/>
<rect x="66.3" y="28.4" class="st2" width="9.5" height="9.5"/>
<rect x="56.8" y="28.4" class="st2" width="9.5" height="9.5"/>
<rect x="28.4" y="28.4" class="st2" width="9.5" height="9.5"/>
<rect x="19" y="28.4" class="st2" width="9.5" height="9.5"/>
<polygon class="st2" points="9.5,37.9 19,37.9 19,28.4 9.5,28.4 9.5,37.8 "/>
<rect x="123.1" y="18.9" class="st2" width="9.5" height="9.4"/>
<rect x="28.4" y="18.9" class="st2" width="9.5" height="9.4"/>
<polygon class="st2" points="0,28.4 9.5,28.4 9.5,18.9 9.5,18.9 0,18.9 "/>
<rect x="113.6" y="9.5" class="st2" width="9.5" height="9.5"/>
<rect x="28.4" y="9.5" class="st2" width="9.5" height="9.5"/>
<polygon class="st2" points="0,18.9 9.5,18.9 9.5,9.5 9.5,9.4 0,9.4 "/>
<rect x="104.2" class="st2" width="9.5" height="9.5"/>
<rect x="94.7" class="st2" width="9.5" height="9.5"/>
<rect x="85.2" class="st2" width="9.5" height="9.5"/>
<rect x="75.7" class="st2" width="9.5" height="9.5"/>
<rect x="66.3" class="st2" width="9.5" height="9.5"/>
<rect x="56.8" class="st2" width="9.5" height="9.5"/>
<rect x="47.4" class="st2" width="9.4" height="9.5"/>
<rect x="37.9" class="st2" width="9.5" height="9.5"/>
<rect x="28.4" class="st2" width="9.5" height="9.5"/>
<rect x="19" class="st2" width="9.5" height="9.5"/>
<polygon class="st2" points="9.5,9.5 19,9.5 19,0 9.5,0 9.5,9.4 "/>
</svg>
