<?xml version="1.0" encoding="utf-8"?>
<!-- Generator: Adobe Illustrator 26.3.1, SVG Export Plug-In . SVG Version: 6.00 Build 0)  -->
<svg version="1.1" id="Layer_6" xmlns="http://www.w3.org/2000/svg" xmlns:xlink="http://www.w3.org/1999/xlink" x="0px" y="0px"
	 viewBox="0 0 1099.7 556.6" style="enable-background:new 0 0 1099.7 556.6;" xml:space="preserve">
<style type="text/css">
	.st0{fill:#14181F;}
	.st1{fill:#EA32C7;}
	.st2{fill:#F2E68E;}
</style>
<polygon class="st0" points="402.7,40.4 394.6,40.4 394.6,32.3 386.6,32.3 386.6,24.2 378.5,24.2 378.5,16.1 370.4,16.1 370.4,8.1 
	362.3,8.1 362.3,0 289.7,0 289.7,8.1 281.6,8.1 281.6,137.3 289.7,137.3 289.7,145.4 297.7,145.4 297.7,153.4 305.8,153.4 
	305.8,161.5 338.1,161.5 338.1,153.4 346.2,153.4 346.2,137.3 354.3,137.3 354.3,145.4 362.3,145.4 362.3,153.4 370.4,153.4 
	370.4,161.5 402.7,161.5 402.7,153.4 410.8,153.4 410.8,129.2 402.7,129.2 402.7,121.1 394.6,121.1 394.6,113.1 386.6,113.1 
	386.6,105 394.6,105 394.6,96.9 402.7,96.9 402.7,88.8 410.8,88.8 410.8,48.5 402.7,48.5 "/>
<path class="st1" d="M378.5,32.3v-8.1h-8.1v-8.1h-8.1V8.1h-72.7v129.2H322V96.9h16.1v8.1h8.1v8.1h8.1v24.2h32.3v-24.2h-8.1V105h-8.1
	v-8.1h-8.1v-8.1h8.1v-8.1h8.1v-8.1h8.1V32.3H378.5z M354.3,72.7h-8.1v8.1H322V24.2h24.2v8.1h8.1L354.3,72.7z"/>
<path class="st2" d="M289.7,8.1v129.2h8.1V16.1h64.6V8.1H289.7z M354.3,72.7h-8.1v8.1H330v8.1h24.2v-8.1h8.1V40.4h-8.1L354.3,72.7z
	 M354.3,137.3h8.1v-16.2h-8.1V137.3z"/>
<polygon class="st0" points="545.7,56.5 545.7,40.4 537.6,40.4 537.6,32.3 529.6,32.3 529.6,24.2 521.5,24.2 521.5,16.1 513.4,16.1 
	513.4,8.1 497.3,8.1 497.3,0 481.1,0 465,0 465,8.1 448.8,8.1 448.8,16.1 440.7,16.1 440.7,24.2 432.7,24.2 432.7,40.4 424.6,40.4 
	424.6,105 432.7,105 432.7,121.1 440.7,121.1 440.7,129.2 448.8,129.2 448.8,137.3 456.9,137.3 456.9,145.4 465,145.4 465,153.4 
	481.1,153.4 481.1,161.5 497.3,161.5 513.4,161.5 513.4,153.4 521.5,153.4 529.6,153.4 529.6,145.4 537.6,145.4 537.6,137.3 
	545.7,137.3 545.7,121.1 553.8,121.1 553.8,56.5 "/>
<path class="st1" d="M521.5,40.4V24.2h-8.1v-8.1h-16.1V8.1H465v8.1h-16.2v8.1h-8.1v16.2h-8.1V105h8.1v16.2h8.1v8.1H465v8.1h32.3
	v-8.1h16.2v-8.1h8.1V105h8.1V40.4H521.5z M497.3,56.5V105h-8.1v8.1H473V105h-8V40.4h8v-8.1h16.1v8.1h8.1L497.3,56.5z"/>
<path class="st2" d="M497.3,105h-8.1v8.1h-8.1v8.1h16.1v-8.1h8.1V48.5h-8.1V105z M505.3,16.2v8.1h8.1v-8.1L505.3,16.2z M440.7,121.2
	h8.1v-8.1h-8.1V121.2z M489.2,16.2h8.1V8.1H465v8.1h-16.2v8.1h-8.1v16.2h-8.1V105h8.1V48.5h8.1V32.3h8.1v-8.1H473v-8.1L489.2,16.2z"
	/>
<polygon class="st0" points="664.5,153.6 672.6,153.6 672.6,145.5 680.6,145.5 680.6,137.4 688.7,137.4 688.7,121.3 696.8,121.3 
	696.8,113.2 688.7,113.2 688.7,105.1 680.6,105.1 680.6,97.1 672.6,97.1 672.6,89 664.5,89 640.3,89 640.3,97.1 632.2,97.1 
	632.2,56.7 640.3,56.7 648.3,56.7 648.3,64.8 656.4,64.8 656.4,72.8 688.7,72.8 688.7,64.8 696.8,64.8 696.8,56.7 688.7,56.7 
	688.7,40.5 680.6,40.5 680.6,32.5 672.6,32.5 672.6,24.4 664.5,24.4 664.5,16.3 656.4,16.3 656.4,8.2 640.3,8.2 640.3,0.2 
	624.1,0.2 608,0.2 608,8.2 591.8,8.2 591.8,16.3 583.7,16.3 583.7,24.4 575.7,24.4 575.7,40.5 567.6,40.5 567.6,105.1 575.7,105.1 
	575.7,121.3 583.7,121.3 583.7,129.4 591.8,129.4 591.8,137.4 599.9,137.4 599.9,145.5 608,145.5 608,153.6 624.1,153.6 
	624.1,161.7 640.3,161.7 656.4,161.7 656.4,153.6 "/>
<polygon class="st1" points="672.6,48.6 672.6,40.5 664.5,40.5 664.5,24.4 656.4,24.4 656.4,16.3 640.3,16.3 640.3,8.2 624.1,8.2 
	608,8.2 608,16.3 591.8,16.3 591.8,24.4 583.7,24.4 583.7,40.5 575.7,40.5 575.7,105.1 583.7,105.1 583.7,121.3 591.8,121.3 
	591.8,129.4 608,129.4 608,137.4 624.1,137.4 640.3,137.4 640.3,129.4 648.3,129.4 656.4,129.4 656.4,121.3 664.5,121.3 
	664.5,105.1 672.6,105.1 672.6,97.1 664.5,97.1 640.3,97.1 640.3,105.1 632.2,105.1 632.2,113.2 624.1,113.2 616,113.2 616,105.1 
	608,105.1 608,40.5 616,40.5 616,32.5 624.1,32.5 632.2,32.5 632.2,40.5 640.3,40.5 640.3,48.6 "/>
<path class="st2" d="M583.7,121.3h8.1v-8.1h-8.1V121.3z M664.5,97.1h-24.2v8.1h-8.1v8.1h-8.1v8.1h16.2v-8.1h8.1v-8.1h24.2v-8.1
	H664.5z M656.4,16.3h-8.1v8.1h8.1V16.3z M632.2,16.3h8.1V8.2H608v8.1h-16.2v8.1h-8.1v16.2h-8.1v64.6h8.1V48.6h8.1V32.5h8.1v-8.1H616
	v-8.1H632.2z"/>
<polygon class="st0" points="718.8,145.5 726.9,145.5 726.9,153.6 735,153.6 735,161.7 767.3,161.7 767.3,153.6 775.3,153.6 
	775.3,137.4 783.4,137.4 783.4,145.5 791.5,145.5 791.5,153.6 799.6,153.6 799.6,161.7 831.9,161.7 831.9,153.6 839.9,153.6 
	839.9,145.5 831.9,145.5 831.9,129.4 823.8,129.4 823.8,113.2 815.7,113.2 815.7,97.1 807.6,97.1 807.6,80.9 815.7,80.9 815.7,64.8 
	823.8,64.8 823.8,48.6 831.9,48.6 831.9,32.5 839.9,32.5 839.9,24.4 831.9,24.4 831.9,16.3 823.8,16.3 823.8,8.2 815.7,8.2 
	815.7,0.2 783.4,0.2 783.4,8.2 775.3,8.2 775.3,16.3 759.2,16.3 759.2,8.2 751.1,8.2 751.1,0.2 718.8,0.2 718.8,8.2 710.7,8.2 
	710.7,137.4 718.8,137.4 "/>
<polygon class="st1" points="791.5,64.8 791.5,48.6 799.6,48.6 799.6,32.5 807.6,32.5 807.6,16.3 815.7,16.3 815.7,8.2 783.4,8.2 
	783.4,16.3 775.3,16.3 775.3,32.5 767.3,32.5 767.3,48.6 759.2,48.6 759.2,64.8 751.1,64.8 751.1,8.2 718.8,8.2 718.8,137.4 
	751.1,137.4 751.1,80.9 759.2,80.9 759.2,97.1 767.3,97.1 767.3,113.2 775.3,113.2 775.3,129.4 783.4,129.4 783.4,137.4 
	815.7,137.4 815.7,129.4 807.6,129.4 807.6,113.2 799.6,113.2 799.6,97.1 791.5,97.1 791.5,80.9 783.4,80.9 783.4,64.8 "/>
<path class="st2" d="M783.4,8.2v8.1h-8.1v16.2h-8.1v16.1h-8.1v24.2h8.1V56.7h8.1V40.5h8.1V24.4h8.1v-8.1h24.2V8.2H783.4z
	 M775.3,105.1h-8.1v8.1h8.1V105.1z M767.3,89h-8.1v8.1h8.1V89z M718.8,137.5h8.1V16.3h24.2V8.2h-32.3V137.5z M775.3,129.4h8.1v-8.1
	h-8.1V129.4z"/>
<polygon class="st0" points="337.4,235.4 329.3,235.4 329.3,227.4 321.2,227.4 321.2,219.3 313.1,219.3 313.1,211.2 305.1,211.2 
	305.1,203.1 297,203.1 297,195.1 224.3,195.1 224.3,203.1 216.2,203.1 216.2,332.4 224.3,332.4 224.3,340.4 232.4,340.4 
	232.4,348.5 240.5,348.5 240.5,356.6 272.8,356.6 272.8,348.5 280.8,348.5 280.8,316.2 313.1,316.2 313.1,308.1 321.2,308.1 
	321.2,300.1 329.3,300.1 329.3,292 337.4,292 337.4,283.9 345.4,283.9 345.4,243.5 337.4,243.5 "/>
<path class="st1" d="M313.1,227.4v-8.1h-8.1v-8.1H297v-8.1h-72.7v129.2h32.3V292H297v-8.1h8.1v-8.1h8.1v-8.1h8.1v-40.4H313.1z
	 M288.9,267.8h-8.1v8.1h-24.2v-56.5h24.2v8.1h8.1L288.9,267.8z"/>
<path class="st2" d="M288.9,267.8h-8.1v8.1h-16.2v8.1h24.2v-8.1h8.1v-40.4h-8.1L288.9,267.8z M224.3,203.1v129.2h8.1V211.2H297v-8.1
	H224.3z"/>
<polygon class="st0" points="475.4,235.4 467.3,235.4 467.3,227.4 459.2,227.4 459.2,219.3 451.1,219.3 451.1,211.2 443.1,211.2 
	443.1,203.1 435,203.1 435,195.1 386.5,195.1 386.5,203.1 378.5,203.1 378.5,211.2 370.4,211.2 370.4,219.3 367.3,219.3 
	367.3,227.4 359.2,227.4 359.2,332.4 367.3,332.4 367.3,340.4 375.4,340.4 375.4,348.5 383.5,348.5 383.5,356.6 415.8,356.6 
	415.8,348.5 423.8,348.5 423.8,332.4 431.9,332.4 431.9,340.4 440,340.4 440,348.5 448.1,348.5 448.1,356.6 475.4,356.6 
	475.4,348.5 483.4,348.5 483.4,243.5 475.4,243.5 "/>
<path class="st1" d="M451.1,227.4v-8.1h-8.1v-8.1H435v-8.1h-48.5v8.1h-8.1v8.1h-8.1l5,8.1h-8.1v105h32.3v-48.5h27.3l5,48.5h27.3
	v-105L451.1,227.4z M426.9,267.8h-27.3l-5-40.4h8.1v-8.1h16.1v8.1h8.1V267.8z"/>
<path class="st2" d="M386.5,203.1v8.1h-8.1v8.1h-8.1l5,8.1h-8.1v105h8.1v-96.9h3.1v-8.1h8.1v-8.1h8.1v-8.1H435v-8.1L386.5,203.1z
	 M431.9,332.4h3.1V292h-8.1L431.9,332.4z M426.9,267.8h-24.2v8.1H435v-40.4h-8.1L426.9,267.8z"/>
<polygon class="st0" points="618.1,235.5 610,235.5 610,227.4 601.9,227.4 601.9,219.3 593.9,219.3 593.9,211.2 585.8,211.2 
	585.8,203.2 577.7,203.2 577.7,195.1 505,195.1 505,203.2 497,203.2 497,332.4 505,332.4 505,340.4 513.1,340.4 513.1,348.5 
	521.2,348.5 521.2,356.6 553.5,356.6 553.5,348.5 561.6,348.5 561.6,316.2 593.9,316.2 593.9,308.1 601.9,308.1 601.9,300.1 
	610,300.1 610,292 618.1,292 618.1,283.9 626.2,283.9 626.2,243.5 618.1,243.5 "/>
<path class="st1" d="M593.9,227.4v-8.1h-8.1v-8.1h-8.1v-8.1H505v129.2h32.3V292h40.4v-8.1h8.1v-8.1h8.1v-8.1h8.1v-40.4H593.9z
	 M569.6,267.8h-8.1v8.1h-24.2v-56.5h24.2v8.1h8.1V267.8z"/>
<path class="st2" d="M569.6,267.8h-8.1v8.1h-16.2v8.1h24.2v-8.1h8.1v-40.4h-8.1L569.6,267.8z M505,203.2v129.2h8.1V211.2h64.6v-8.1
	H505z"/>
<polygon class="st0" points="647.6,340.4 655.6,340.4 655.6,348.5 663.7,348.5 663.7,356.6 744.5,356.6 744.5,348.5 752.5,349.5 
	752.5,333.3 744.5,332.3 744.5,324.3 736.4,324.3 736.4,316.2 728.3,316.2 728.3,308.1 704.1,308.1 704.1,300 728.3,300 728.3,292 
	736.4,292 736.4,275.8 728.3,275.8 728.3,267.7 720.2,267.7 720.2,259.7 712.2,259.7 712.2,251.6 704.1,251.6 704.1,243.5 
	744.5,243.5 744.5,235.4 752.5,235.4 752.5,219.3 744.5,219.3 744.5,211.2 736.4,211.2 736.4,203.1 728.3,203.1 728.3,195.1 
	647.6,195.1 647.6,203.1 639.5,203.1 639.5,332.3 647.6,332.3 "/>
<polygon class="st1" points="728.3,219.3 728.3,203.1 647.6,203.1 647.6,332.3 728.3,332.3 728.3,316.2 679.9,316.2 679.9,275.8 
	712.2,275.8 712.2,259.7 679.9,259.7 679.9,219.3 "/>
<path class="st2" d="M647.6,203.1v129.2h8.1V211.2h72.7v-8.1H647.6z M688,259.7v8.1h24.2v-8.1H688z M688,324.3h40.4v-8.1H688V324.3z
	"/>
<polygon class="st0" points="887.2,235.6 879.2,235.6 879.2,227.5 871.1,227.5 871.1,219.4 863,219.4 863,211.3 854.9,211.3 
	854.9,203.2 846.8,203.2 846.8,195.2 774.2,195.2 774.2,203.2 766.1,203.2 766.1,332.5 774.2,332.5 774.2,340.5 782.2,340.5 
	782.2,348.6 790.3,348.6 790.3,356.7 822.6,356.7 822.6,348.6 830.7,348.6 830.7,332.5 838.8,332.5 838.8,340.5 846.8,340.5 
	846.8,348.6 854.9,348.6 854.9,356.7 887.2,356.7 887.2,348.6 895.3,348.6 895.3,324.4 887.2,324.4 887.2,316.3 879.2,316.3 
	879.2,308.2 871.1,308.2 871.1,300.1 879.2,300.1 879.2,292.1 887.2,292.1 887.2,284 895.3,284 895.3,243.6 887.2,243.6 "/>
<path class="st1" d="M863,227.5v-8.1h-8.1v-8.1h-8.1v-8.1h-72.7v129.2h32.3v-40.4h16.2v8.1h8.1v8.1h8.1v24.2h32.3v-24.2H863v-8.1
	h-8.1v-8.1h-8.1V284h8.1v-8.1h8.1v-8.1h8.1v-40.4H863z M838.8,267.9h-8.1v8.1h-24.2v-56.5h24.2v8.1h8.1V267.9z"/>
<path class="st2" d="M774.2,203.2v129.2h8.1V211.3h64.6v-8.1H774.2z M838.8,267.9h-8.1v8.1h-16.2v8.1h24.2v-8.1h8.1v-40.4h-8.1
	V267.9z M838.8,332.5h8.1v-16.2h-8.1V332.5z"/>
<polygon class="st0" points="16.1,414.8 8.1,414.8 8.1,430.9 0,430.9 0,447 8.1,447 8.1,455.1 16.1,455.1 16.1,463.2 24.2,463.2 
	24.2,471.3 32.3,471.3 32.3,479.4 8.1,479.4 8.1,487.4 0,487.4 0,495.5 8.1,495.5 8.1,511.6 16.1,511.6 16.1,519.7 24.2,519.7 
	24.2,527.8 32.3,527.8 32.3,535.9 40.4,535.9 40.4,544 56.5,544 56.5,552 72.7,552 88.8,552 88.8,544 105,544 105,535.9 
	113.1,535.9 113.1,527.8 121.1,527.8 121.1,511.6 129.2,511.6 129.2,495.5 121.1,495.5 121.1,487.4 113.1,487.4 113.1,479.4 
	105,479.4 105,471.3 96.9,471.3 96.9,463.2 121.1,463.2 121.1,455.1 129.2,455.1 129.2,447 121.1,447 121.1,430.9 113.1,430.9 
	113.1,422.8 105,422.8 105,414.8 96.9,414.8 96.9,406.7 88.8,406.7 88.8,398.6 72.7,398.6 72.7,390.5 56.5,390.5 40.4,390.5 
	40.4,398.6 24.2,398.6 24.2,406.7 16.1,406.7 "/>
<rect x="72.7" y="447" class="st0" width="8.1" height="8.1"/>
<rect x="48.5" y="487.4" class="st0" width="8.1" height="8.1"/>
<polygon class="st1" points="105,439 105,430.9 96.9,430.9 96.9,414.8 88.8,414.8 88.8,406.7 72.7,406.7 72.7,398.6 56.5,398.6 
	40.4,398.6 40.4,406.7 24.2,406.7 24.2,414.8 16.1,414.8 16.1,430.9 8.1,430.9 8.1,447 16.1,447 16.1,455.1 24.2,455.1 24.2,463.2 
	40.4,463.2 40.4,471.3 56.5,471.3 56.5,479.4 64.6,479.4 64.6,487.4 72.7,487.4 72.7,495.5 64.6,495.5 64.6,503.6 56.5,503.6 
	48.5,503.6 48.5,495.5 40.4,495.5 40.4,487.4 8.1,487.4 8.1,495.5 16.1,495.5 16.1,511.6 24.2,511.6 24.2,519.7 40.4,519.7 
	40.4,527.8 56.5,527.8 72.7,527.8 72.7,519.7 88.8,519.7 88.8,511.6 96.9,511.6 96.9,495.5 105,495.5 105,479.4 96.9,479.4 
	96.9,471.3 88.8,471.3 88.8,463.2 72.7,463.2 72.7,455.1 56.5,455.1 56.5,447 48.5,447 48.5,439 40.4,439 40.4,430.9 48.5,430.9 
	48.5,422.8 56.5,422.8 64.6,422.8 64.6,430.9 72.7,430.9 72.7,439 "/>
<path class="st2" d="M8.1,495.5h32.3v-8.1H8.1V495.5z M16.1,511.6h8.1v-8.1h-8.1V511.6z M80.8,471.3h8.1v-8.1h-8.1V471.3z
	 M64.6,463.2h8.1v-8.1h-8.1V463.2z M64.6,503.6h-8.1v8.1h16.2v-8.1h8.1v-8.1H64.6V503.6z M64.6,406.7h8.1v-8.1H40.4v8.1H24.2v8.1
	h-8.1v16.1H8.1V447h8.1v-8h8.1v-16.2h8.1v-8.1h16.2v-8.1L64.6,406.7z M80.8,406.7v8.1h8.1v-8.1H80.8z"/>
<polygon class="st0" points="240.6,544.3 248.7,544.3 248.7,536.2 256.7,536.2 256.7,528.2 264.8,528.2 264.8,512 272.9,512 
	272.9,503.9 264.8,503.9 264.8,495.9 256.7,495.9 256.7,487.8 248.7,487.8 248.7,479.7 240.6,479.7 216.4,479.7 216.4,487.8 
	208.3,487.8 208.3,447.4 216.4,447.4 224.4,447.4 224.4,455.5 232.5,455.5 232.5,463.6 264.8,463.6 264.8,455.5 272.9,455.5 
	272.9,447.4 264.8,447.4 264.8,431.2 256.7,431.2 256.7,423.2 248.7,423.2 248.7,415.1 240.6,415.1 240.6,407 232.5,407 232.5,399 
	216.4,399 216.4,390.9 200.2,390.9 184.1,390.9 184.1,399 167.9,399 167.9,407 159.8,407 159.8,415.1 151.8,415.1 151.8,431.2 
	143.7,431.2 143.7,495.9 151.8,495.9 151.8,512 159.8,512 159.8,520.1 167.9,520.1 167.9,528.2 176,528.2 176,536.2 184.1,536.2 
	184.1,544.3 200.2,544.3 200.2,552.4 216.4,552.4 232.5,552.4 232.5,544.3 "/>
<polygon class="st1" points="248.7,439.3 248.7,431.2 240.6,431.2 240.6,415.1 232.5,415.1 232.5,407 216.4,407 216.4,399 
	200.2,399 184.1,399 184.1,407 167.9,407 167.9,415.1 159.8,415.1 159.8,431.2 151.8,431.2 151.8,495.9 159.8,495.9 159.8,512 
	167.9,512 167.9,520.1 184.1,520.1 184.1,528.2 200.2,528.2 216.4,528.2 216.4,520.1 224.4,520.1 232.5,520.1 232.5,512 240.6,512 
	240.6,495.9 248.7,495.9 248.7,487.8 240.6,487.8 216.4,487.8 216.4,495.9 208.3,495.9 208.3,503.9 200.2,503.9 192.1,503.9 
	192.1,495.9 184.1,495.9 184.1,431.2 192.1,431.2 192.1,423.2 200.2,423.2 208.3,423.2 208.3,431.2 216.4,431.2 216.4,439.3 "/>
<path class="st2" d="M159.8,512h8.1v-8.1h-8.1V512z M240.6,487.8h-24.2v8.1h-8.1v8.1h-8.1v8.1h16.1v-8.1h8.1v-8.1h24.2v-8.1
	L240.6,487.8z M232.5,407h-8.1v8.1h8.1L232.5,407z M208.3,407h8.1v-8h-32.3v8h-16.1v8.1h-8.1v16.1h-8.1v64.6h8.1v-56.5h8.1v-16.1
	h8.1v-8.1h16.1V407H208.3z"/>
<polygon class="st0" points="376,552.4 376,544.3 384,544.3 384,528.2 376,528.2 376,520.1 367.9,520.1 367.9,439.3 376,439.3 
	376,431.2 384,431.2 384,415.1 376,415.1 376,407 367.9,407 367.9,399 359.8,399 359.8,390.9 295.2,390.9 295.2,399 287.1,399 
	287.1,415.1 295.2,415.1 295.2,423.2 303.3,423.2 303.3,503.9 295.2,503.9 295.2,512 287.1,512 287.1,528.2 295.2,528.2 
	295.2,536.2 303.3,536.2 303.3,544.3 311.4,544.3 311.4,552.4 "/>
<polygon class="st1" points="295.2,399 295.2,415.1 311.4,415.1 311.4,512 295.2,512 295.2,528.2 359.8,528.2 359.8,512 343.6,512 
	343.6,415.1 359.8,415.1 359.8,399 "/>
<path class="st2" d="M351.7,520.1h8.1V512h-8.1V520.1z M295.2,399v16.1h8.1V407h56.5v-8H295.2z M311.4,512h-16.1v16.2h8.1v-8.1h16.1
	v-96.9h-8.1V512z"/>
<polygon class="st0" points="414.1,414.9 406,414.9 406,431.1 398,431.1 398,447.2 406,447.2 406,455.3 414.1,455.3 414.1,463.4 
	422.2,463.4 422.2,471.5 430.3,471.5 430.3,479.5 406,479.5 406,487.6 398,487.6 398,495.7 406,495.7 406,511.8 414.1,511.8 
	414.1,519.9 422.2,519.9 422.2,528 430.3,528 430.3,536.1 438.4,536.1 438.4,544.1 454.5,544.1 454.5,552.2 470.6,552.2 
	486.8,552.2 486.8,544.1 503,544.1 503,536.1 511,536.1 511,528 519.1,528 519.1,511.8 527.2,511.8 527.2,495.7 519.1,495.7 
	519.1,487.6 511,487.6 511,479.5 503,479.5 503,471.5 494.9,471.5 494.9,463.4 519.1,463.4 519.1,455.3 527.2,455.3 527.2,447.2 
	519.1,447.2 519.1,431.1 511,431.1 511,423 503,423 503,414.9 494.9,414.9 494.9,406.9 486.8,406.9 486.8,398.8 470.6,398.8 
	470.6,390.7 454.5,390.7 438.4,390.7 438.4,398.8 422.2,398.8 422.2,406.9 414.1,406.9 "/>
<rect x="470.6" y="447.2" class="st0" width="8.1" height="8.1"/>
<rect x="446.4" y="487.6" class="st0" width="8.1" height="8.1"/>
<polygon class="st1" points="503,439.2 503,431.1 494.9,431.1 494.9,414.9 486.8,414.9 486.8,406.9 470.6,406.9 470.6,398.8 
	454.5,398.8 438.4,398.8 438.4,406.9 422.2,406.9 422.2,414.9 414.1,414.9 414.1,431.1 406,431.1 406,447.2 414.1,447.2 
	414.1,455.3 422.2,455.3 422.2,463.4 438.4,463.4 438.4,471.5 454.5,471.5 454.5,479.5 462.6,479.5 462.6,487.6 470.6,487.6 
	470.6,495.7 462.6,495.7 462.6,503.8 454.5,503.8 446.4,503.8 446.4,495.7 438.4,495.7 438.4,487.6 406,487.6 406,495.7 
	414.1,495.7 414.1,511.8 422.2,511.8 422.2,519.9 438.4,519.9 438.4,528 454.5,528 470.6,528 470.6,519.9 486.8,519.9 486.8,511.8 
	494.9,511.8 494.9,495.7 503,495.7 503,479.5 494.9,479.5 494.9,471.5 486.8,471.5 486.8,463.4 470.6,463.4 470.6,455.3 
	454.5,455.3 454.5,447.2 446.4,447.2 446.4,439.2 438.4,439.2 438.4,431.1 446.4,431.1 446.4,423 454.5,423 462.6,423 462.6,431.1 
	470.6,431.1 470.6,439.2 "/>
<path class="st2" d="M406,495.7h32.3v-8.1H406V495.7z M414.1,511.8h8.1v-8.1h-8.1V511.8z M478.7,471.5h8.1v-8.1h-8.1V471.5z
	 M462.6,463.4h8.1v-8.1h-8.1V463.4z M462.6,503.8h-8.1v8.1h16.1v-8.1h8.1v-8.1h-16.1V503.8z M462.6,406.9h8.1v-8.1h-32.3v8.1h-16.1
	v8.1h-8.1v16.1h-8.1v16.1h8.1v-8.1h8.1V423h8.1v-8.1h16.1v-8.1L462.6,406.9z M478.7,406.9v8.1h8.1v-8.1H478.7z"/>
<polygon class="st0" points="986.6,418.9 978.5,418.9 978.5,435.1 970.5,435.1 970.5,451.2 978.5,451.2 978.5,459.3 986.6,459.3 
	986.6,467.4 994.7,467.4 994.7,475.5 1002.8,475.5 1002.8,483.5 978.5,483.5 978.5,491.6 970.5,491.6 970.5,499.7 978.5,499.7 
	978.5,515.8 986.6,515.8 986.6,523.9 994.7,523.9 994.7,532 1002.8,532 1002.8,540.1 1010.8,540.1 1010.8,548.1 1027,548.1 
	1027,556.2 1043.1,556.2 1059.3,556.2 1059.3,548.1 1075.4,548.1 1075.4,540.1 1083.5,540.1 1083.5,532 1091.6,532 1091.6,515.8 
	1099.7,515.8 1099.7,499.7 1091.6,499.7 1091.6,491.6 1083.5,491.6 1083.5,483.5 1075.4,483.5 1075.4,475.5 1067.3,475.5 
	1067.3,467.4 1091.6,467.4 1091.6,459.3 1099.7,459.3 1099.7,451.2 1091.6,451.2 1091.6,435.1 1083.5,435.1 1083.5,427 1075.4,427 
	1075.4,418.9 1067.3,418.9 1067.3,410.9 1059.3,410.9 1059.3,402.8 1043.1,402.8 1043.1,394.7 1027,394.7 1010.8,394.7 
	1010.8,402.8 994.7,402.8 994.7,410.9 986.6,410.9 "/>
<rect x="1043.1" y="451.2" class="st0" width="8.1" height="8.1"/>
<rect x="1018.9" y="491.6" class="st0" width="8.1" height="8.1"/>
<polygon class="st1" points="1075.4,443.2 1075.4,435.1 1067.3,435.1 1067.3,418.9 1059.3,418.9 1059.3,410.9 1043.1,410.9 
	1043.1,402.8 1027,402.8 1010.8,402.8 1010.8,410.9 994.7,410.9 994.7,418.9 986.6,418.9 986.6,435.1 978.5,435.1 978.5,451.2 
	986.6,451.2 986.6,459.3 994.7,459.3 994.7,467.4 1010.8,467.4 1010.8,475.5 1027,475.5 1027,483.5 1035.1,483.5 1035.1,491.6 
	1043.1,491.6 1043.1,499.7 1035.1,499.7 1035.1,507.8 1027,507.8 1018.9,507.8 1018.9,499.7 1010.8,499.7 1010.8,491.6 978.5,491.6 
	978.5,499.7 986.6,499.7 986.6,515.8 994.7,515.8 994.7,523.9 1010.8,523.9 1010.8,532 1027,532 1043.1,532 1043.1,523.9 
	1059.3,523.9 1059.3,515.8 1067.3,515.8 1067.3,499.7 1075.4,499.7 1075.4,483.5 1067.3,483.5 1067.3,475.5 1059.3,475.5 
	1059.3,467.4 1043.1,467.4 1043.1,459.3 1027,459.3 1027,451.2 1018.9,451.2 1018.9,443.2 1010.8,443.2 1010.8,435.1 1018.9,435.1 
	1018.9,427 1027,427 1035.1,427 1035.1,435.1 1043.1,435.1 1043.1,443.2 "/>
<path class="st2" d="M978.5,499.7h32.3v-8.1h-32.3V499.7z M986.6,515.8h8.1v-8.1h-8.1L986.6,515.8z M1051.2,475.5h8.1v-8.1h-8.1
	V475.5z M1035.1,467.4h8.1v-8.1h-8.1V467.4z M1035.1,507.8h-8.1v8.1h16.2v-8.1h8.1v-8.1h-16.2L1035.1,507.8z M1035.1,410.9h8.1v-8.1
	h-32.3v8.1h-16.2v8.1h-8.1v16.1h-8.1v16.1h8.1v-8.1h8.1V427h8.1v-8.1h16.2v-8.1L1035.1,410.9z M1051.2,410.9v8.1h8.1v-8.1H1051.2z"
	/>
<polyline class="st0" points="684.5,435.4 684.5,500 692.6,500 692.6,516.1 700.7,516.1 700.7,524.2 708.8,524.2 708.8,532.3 
	716.8,532.3 716.8,540.4 724.9,540.4 724.9,548.4 741.1,548.4 741.1,556.5 757.2,556.5 773.4,556.5 773.4,548.4 781.5,548.4 
	789.5,548.4 789.5,540.4 797.6,540.4 797.6,532.3 805.7,532.3 805.7,516.1 813.8,516.1 813.8,451.5 805.7,451.5 805.7,435.4 
	797.6,435.4 797.6,427.3 789.5,427.3 789.5,419.2 781.5,419.2 781.5,411.2 773.4,411.2 773.4,403.1 757.2,403.1 757.2,395 
	741.1,395 724.9,395 724.9,403.1 708.8,403.1 708.8,411.2 700.7,411.2 700.7,419.2 692.6,419.2 692.6,435.4 684.5,435.4 "/>
<path class="st1" d="M781.5,435.4v-16.1h-8.1v-8.1h-16.2v-8.1h-32.3v8.1h-16.1v8.1h-8.1v16.1h-8.1V500h8.1v16.2h8.1v8.1h16.2v8.1
	h32.3v-8.1h16.2v-8.1h8.1V500h8.1v-64.6H781.5z M757.2,451.5V500h-8.1v8.1H733V500h-8.1v-64.6h8.1v-8.1h16.2v8.1h8.1L757.2,451.5z"
	/>
<path class="st2" d="M757.2,500h-8.1v8.1h-8.1v8.1h16.2v-8.1h8.1v-64.6h-8.1V500z M765.3,411.2v8.1h8.1v-8.1H765.3z M700.7,516.2
	h8.1v-8.1h-8.1V516.2z M749.2,411.2h8.1v-8.1h-32.3v8.1h-16.2v8.1h-8.1v16.1h-8.1V500h8.1v-56.5h8.1v-16.1h8.1v-8.1H733v-8.1
	L749.2,411.2z"/>
<polygon class="st0" points="948.3,435.5 940.2,435.5 940.2,427.4 932.1,427.4 932.1,419.3 924.1,419.3 924.1,411.2 916,411.2 
	916,403.2 907.9,403.2 907.9,395.1 835.2,395.1 835.2,403.2 827.2,403.2 827.2,532.4 835.2,532.4 835.2,540.5 843.3,540.5 
	843.3,548.5 851.4,548.5 851.4,556.6 883.7,556.6 883.7,548.5 891.8,548.5 891.8,532.4 899.8,532.4 899.8,540.5 907.9,540.5 
	907.9,548.5 916,548.5 916,556.6 948.3,556.6 948.3,548.5 956.4,548.5 956.4,524.3 948.3,524.3 948.3,516.2 940.2,516.2 
	940.2,508.1 932.1,508.1 932.1,500.1 940.2,500.1 940.2,492 948.3,492 948.3,483.9 956.4,483.9 956.4,443.5 948.3,443.5 "/>
<path class="st1" d="M924.1,427.4v-8.1H916v-8.1h-8.1v-8.1h-72.7v129.2h32.3V492h16.2v8.1h8.1v8.1h8.1v24.2h32.3v-24.2h-8.1v-8.1
	H916V492h-8.1v-8.1h8.1v-8.1h8.1v-8.1h8.1v-40.4H924.1z M899.8,467.8h-8.1v8.1h-24.2v-56.5h24.2v8.1h8.1V467.8z"/>
<path class="st2" d="M835.2,403.2v129.2h8.1V411.2h64.6v-8.1H835.2z M899.8,467.8h-8.1v8.1h-16.2v8.1h24.2v-8.1h8.1v-40.4h-8.1
	V467.8z M899.8,532.4h8.1v-16.2h-8.1V532.4z"/>
<polygon class="st0" points="557,415 548.9,415 548.9,431.1 540.8,431.1 540.8,447.3 548.9,447.3 548.9,455.4 557,455.4 557,463.4 
	565.1,463.4 565.1,471.5 573.1,471.5 573.1,479.6 548.9,479.6 548.9,487.7 540.8,487.7 540.8,495.7 548.9,495.7 548.9,511.9 
	557,511.9 557,520 565.1,520 565.1,528 573.1,528 573.1,536.1 581.2,536.1 581.2,544.2 597.4,544.2 597.4,552.3 613.5,552.3 
	629.7,552.3 629.7,544.2 645.8,544.2 645.8,536.1 653.9,536.1 653.9,528 662,528 662,511.9 670,511.9 670,495.7 662,495.7 
	662,487.7 653.9,487.7 653.9,479.6 645.8,479.6 645.8,471.5 637.7,471.5 637.7,463.4 662,463.4 662,455.4 670,455.4 670,447.3 
	662,447.3 662,431.1 653.9,431.1 653.9,423.1 645.8,423.1 645.8,415 637.7,415 637.7,406.9 629.7,406.9 629.7,398.8 613.5,398.8 
	613.5,390.8 597.4,390.8 581.2,390.8 581.2,398.8 565.1,398.8 565.1,406.9 557,406.9 "/>
<rect x="613.5" y="447.3" class="st0" width="8.1" height="8.1"/>
<rect x="589.3" y="487.7" class="st0" width="8.1" height="8.1"/>
<polygon class="st1" points="645.8,439.2 645.8,431.1 637.7,431.1 637.7,415 629.7,415 629.7,406.9 613.5,406.9 613.5,398.8 
	597.4,398.8 581.2,398.8 581.2,406.9 565.1,406.9 565.1,415 557,415 557,431.1 548.9,431.1 548.9,447.3 557,447.3 557,455.4 
	565.1,455.4 565.1,463.4 581.2,463.4 581.2,471.5 597.4,471.5 597.4,479.6 605.4,479.6 605.4,487.7 613.5,487.7 613.5,495.7 
	605.4,495.7 605.4,503.8 597.4,503.8 589.3,503.8 589.3,495.7 581.2,495.7 581.2,487.7 548.9,487.7 548.9,495.7 557,495.7 
	557,511.9 565.1,511.9 565.1,520 581.2,520 581.2,528 597.4,528 613.5,528 613.5,520 629.7,520 629.7,511.9 637.7,511.9 
	637.7,495.7 645.8,495.7 645.8,479.6 637.7,479.6 637.7,471.5 629.7,471.5 629.7,463.4 613.5,463.4 613.5,455.4 597.4,455.4 
	597.4,447.3 589.3,447.3 589.3,439.2 581.2,439.2 581.2,431.1 589.3,431.1 589.3,423.1 597.4,423.1 605.4,423.1 605.4,431.1 
	613.5,431.1 613.5,439.2 "/>
<path class="st2" d="M548.9,495.7h32.3v-8.1h-32.3V495.7z M557,511.9h8.1v-8.1H557V511.9z M621.6,471.5h8.1v-8.1h-8.1V471.5z
	 M605.5,463.4h8.1v-8.1h-8.1V463.4z M605.5,503.8h-8.1v8.1h16.2v-8.1h8.1v-8.1h-16.2L605.5,503.8z M605.5,406.9h8.1v-8.1h-32.3v8.1
	h-16.2v8.1H557v16.1h-8.1v16.2h8.1v-8.1h8.1v-16.2h8.1V415h16.2v-8.1L605.5,406.9z M621.6,406.9v8.1h8.1v-8.1L621.6,406.9z"/>
</svg>
