<?xml version="1.0" encoding="utf-8"?>
<!-- Generator: Adobe Illustrator 26.3.1, SVG Export Plug-In . SVG Version: 6.00 Build 0)  -->
<svg version="1.1" id="Layer_6" xmlns="http://www.w3.org/2000/svg" xmlns:xlink="http://www.w3.org/1999/xlink" x="0px" y="0px"
	 viewBox="0 0 175.1 151.5" style="enable-background:new 0 0 175.1 151.5;" xml:space="preserve">
<style type="text/css">
	.st0{fill:#EA32C7;}
	.st1{fill:#D814AB;}
	.st2{fill:#F2E68E;}
	.st3{fill:#14181F;}
</style>
<polygon class="st0" points="173.8,85.2 173.8,90.6 173.8,90.6 164.4,90.6 164.4,85.9 164.4,85.2 "/>
<polygon class="st0" points="173.8,90.6 173.8,99.9 165.6,99.9 164.4,99.9 164.4,90.6 "/>
<polygon class="st0" points="169.1,15.6 160,15.6 160,9.5 169.4,9.5 169.4,18.8 169.1,18.8 "/>
<polygon class="st0" points="169.1,18.8 169.1,25 160.9,25 159.7,25 159.7,15.6 160,15.6 160,18.8 "/>
<rect x="160" y="15.6" class="st0" width="9.1" height="3.2"/>
<polygon class="st0" points="165.6,99.9 165.6,109.3 155,109.3 155,99.9 164.4,99.9 "/>
<polygon class="st0" points="164.4,90.6 164.4,99.9 155,99.9 146.7,99.9 146.7,90.6 136.3,90.6 127.8,90.6 127.8,90.6 127.8,81.2 
	127.8,81.2 122.3,81.2 122.3,81.2 112.9,81.2 103.6,81.2 94.2,81.2 94.2,71.8 103.6,71.8 103.6,62.5 112.9,62.5 116.4,62.5 
	116.4,63.7 116.4,71.4 121.9,71.4 121.9,76.4 121.9,76.4 136.3,76.4 145.7,76.4 145.7,85.9 155,85.9 164.4,85.9 "/>
<polygon class="st0" points="164.4,85.2 164.4,85.9 155,85.9 155,75.7 164.4,75.7 "/>
<polygon class="st0" points="160.9,25 160.9,34.3 150.4,34.3 150.4,25 159.7,25 "/>
<polygon class="st0" points="122.3,43.7 123.1,43.7 123.1,43.7 112.9,43.7 112.9,53.1 103.6,53.1 103.6,43.7 103.6,38.3 103.6,34.3 
	103.6,29 104.6,29 113.9,29 123.3,29 123.3,29 123.3,19.6 123.3,19.6 132.6,19.6 142,19.6 142,10.2 143,10.2 150.4,10.2 152.4,10.2 
	159.7,10.2 159.7,9.5 160,9.5 160,15.6 159.7,15.6 159.7,25 150.4,25 141,25 141,34.3 131.6,34.3 122.3,34.3 122.3,34.3 "/>
<polygon class="st0" points="159.7,9.5 159.7,10.2 152.4,10.2 152.4,0.9 159.7,0.9 "/>
<polygon class="st1" points="155,99.9 155,109.3 146.7,109.3 146.7,99.9 146.7,99.9 "/>
<polygon class="st0" points="155,75.7 155,85.9 145.7,85.9 145.7,76.4 145.7,76.4 145.7,75.7 "/>
<rect x="150.4" y="0.9" class="st1" width="2" height="9.4"/>
<polygon class="st0" points="150.4,25 150.4,34.3 142,34.3 142,34.3 141,34.3 141,25 "/>
<polygon class="st1" points="150.4,0.9 150.4,10.2 143,10.2 143,10.2 143,0.9 "/>
<polygon class="st0" points="146.7,99.9 136.3,99.9 136.3,90.6 146.7,90.6 "/>
<polygon class="st0" points="145.7,76.4 145.7,76.4 136.3,76.4 136.3,66.8 145.7,66.8 145.7,75.7 "/>
<polygon class="st0" points="142,10.2 142,19.6 132.6,19.6 132.6,10.2 "/>
<polygon class="st0" points="142,34.3 142,43.7 131.6,43.7 131.6,34.3 141,34.3 141,34.3 "/>
<polygon class="st1" points="141,34.3 142,34.3 142,34.3 "/>
<polygon class="st1" points="136.3,90.6 136.3,99.9 127.8,99.9 127.8,99.9 127.8,90.6 "/>
<polygon class="st0" points="136.3,66.3 136.3,66.8 136.3,76.4 121.9,76.4 121.9,76.4 121.9,71.4 127.8,71.4 127.8,66.3 "/>
<polygon class="st1" points="132.6,10.2 132.6,19.6 123.3,19.6 123.3,10.2 123.3,10.2 "/>
<polygon class="st0" points="131.6,34.3 131.6,43.7 123.1,43.7 122.3,43.7 122.3,34.3 122.3,34.3 "/>
<polygon class="st0" points="127.8,81.2 127.8,90.6 117.6,90.6 117.6,90.5 122.3,90.5 122.3,90.5 122.3,81.2 "/>
<rect x="121.9" y="66.3" class="st0" width="5.8" height="5.1"/>
<polygon class="st0" points="123.3,29 123.3,29 113.9,29 113.9,19.6 123.3,19.6 "/>
<polygon class="st0" points="123.1,53.1 123.1,53.1 122.3,53.1 112.9,53.1 112.9,43.7 123.1,43.7 "/>
<polygon class="st0" points="122.3,90.5 122.3,90.5 117.6,90.5 117.6,81.2 122.3,81.2 "/>
<polygon class="st0" points="122.3,81.2 122.3,81.2 117.6,81.2 117.6,90.5 112.9,90.5 112.9,81.2 "/>
<polygon class="st1" points="122.3,62.4 122.3,62.5 116.4,62.5 112.9,62.5 112.9,53.1 122.3,53.1 "/>
<polygon class="st0" points="121.9,66.3 121.9,71.4 116.4,71.4 116.4,63.7 127.8,63.7 127.8,63.8 127.8,66.3 "/>
<rect x="104.6" y="19.6" class="st1" width="9.4" height="9.4"/>
<polygon class="st1" points="112.9,99.9 112.9,109.3 104.1,109.3 103.6,109.3 103.6,99.9 "/>
<rect x="103.6" y="90.5" class="st1" width="9.4" height="9.4"/>
<rect x="103.6" y="81.2" class="st0" width="9.4" height="9.4"/>
<rect x="103.6" y="53.1" class="st1" width="9.4" height="9.4"/>
<polygon class="st0" points="104.1,109.3 104.1,118.7 103.6,118.7 94.2,118.7 94.2,109.3 103.6,109.3 "/>
<polygon class="st1" points="103.6,128 103.6,137.4 94.6,137.4 94.2,137.4 94.2,128 "/>
<rect x="94.2" y="118.7" class="st1" width="9.3" height="9.4"/>
<polygon class="st0" points="103.6,99.9 103.6,109.3 94.2,109.3 84.9,109.3 75.5,109.3 66.2,109.3 66.2,99.9 66.2,90.5 75.5,90.5 
	84.9,90.5 94.2,90.5 103.6,90.5 "/>
<rect x="94.2" y="81.2" class="st1" width="9.3" height="9.4"/>
<rect x="94.2" y="62.5" class="st1" width="9.3" height="9.3"/>
<rect x="94.2" y="53.1" class="st1" width="9.3" height="9.4"/>
<rect x="94.2" y="43.7" class="st1" width="9.3" height="9.4"/>
<rect x="94.2" y="38.3" class="st1" width="9.3" height="5.4"/>
<rect x="94.2" y="34.3" class="st1" width="9.3" height="4"/>
<rect x="94.2" y="29" class="st1" width="9.3" height="5.4"/>
<polygon class="st0" points="94.6,137.4 94.6,146.8 84.9,146.8 84.9,137.4 94.2,137.4 "/>
<polygon class="st0" points="94.2,128 94.2,137.4 84.9,137.4 75.5,137.4 66.2,137.4 66.2,128 66.2,118.7 75.5,118.7 84.9,118.7 
	94.2,118.7 "/>
<rect x="84.9" y="109.3" class="st0" width="9.4" height="9.4"/>
<rect x="84.9" y="81.2" class="st1" width="9.4" height="9.4"/>
<rect x="84.9" y="71.8" class="st0" width="9.4" height="9.4"/>
<polygon class="st0" points="94.2,62.5 94.2,71.8 84.9,71.8 75.5,71.8 75.5,62.5 75.5,53.1 66.2,53.1 56.8,53.1 56.8,62.5 
	47.5,62.5 47.5,71.8 38.1,71.8 28.7,71.8 19.4,71.8 19.4,81.2 28.7,81.2 38.1,81.2 47.5,81.2 47.5,71.8 56.8,71.8 56.8,62.5 
	66.2,62.5 66.2,71.8 75.5,71.8 75.5,81.2 66.2,81.2 66.2,90.5 56.8,90.5 56.8,99.9 56.8,109.3 66.2,109.3 66.2,118.7 56.8,118.7 
	56.8,128 56.8,137.4 47.5,137.4 38.1,137.4 28.7,137.4 19.4,137.4 19.4,128 10,128 10,118.7 10,109.3 10,99.9 10,90.5 10,81.2 
	10,71.8 10,62.5 10,58.1 10,53.1 10,48.7 19.4,48.7 19.4,39.3 19.4,38.3 28.7,38.3 38.1,38.3 47.5,38.3 56.8,38.3 66.2,38.3 
	75.5,38.3 84.9,38.3 94.2,38.3 94.2,43.7 94.2,53.1 "/>
<polygon class="st1" points="94.2,34.3 94.2,38.3 84.9,38.3 84.9,29 94.2,29 "/>
<rect x="75.5" y="137.4" class="st0" width="9.3" height="9.4"/>
<rect x="75.5" y="109.3" class="st0" width="9.3" height="9.4"/>
<rect x="75.5" y="81.2" class="st1" width="9.3" height="9.4"/>
<rect x="75.5" y="71.8" class="st1" width="9.3" height="9.4"/>
<rect x="75.5" y="29" class="st1" width="9.3" height="9.4"/>
<rect x="66.2" y="137.4" class="st1" width="9.3" height="9.4"/>
<rect x="66.2" y="109.3" class="st1" width="9.3" height="9.4"/>
<rect x="66.2" y="81.2" class="st0" width="9.3" height="9.4"/>
<rect x="66.2" y="62.5" class="st1" width="9.3" height="9.3"/>
<rect x="66.2" y="53.1" class="st0" width="9.3" height="9.4"/>
<rect x="66.2" y="29" class="st1" width="9.3" height="9.4"/>
<rect x="56.8" y="137.4" class="st1" width="9.4" height="9.4"/>
<rect x="56.8" y="128" class="st1" width="9.4" height="9.4"/>
<rect x="56.8" y="118.7" class="st0" width="9.4" height="9.4"/>
<rect x="56.8" y="99.9" class="st1" width="9.4" height="9.4"/>
<rect x="56.8" y="90.5" class="st0" width="9.4" height="9.4"/>
<rect x="56.8" y="53.1" class="st0" width="9.4" height="9.4"/>
<rect x="56.8" y="29" class="st1" width="9.4" height="9.4"/>
<rect x="47.5" y="137.4" class="st0" width="9.4" height="9.4"/>
<rect x="47.5" y="62.5" class="st0" width="9.4" height="9.3"/>
<rect x="47.5" y="29" class="st1" width="9.4" height="9.4"/>
<rect x="38.1" y="137.4" class="st0" width="9.3" height="9.4"/>
<rect x="38.1" y="71.8" class="st0" width="9.3" height="9.4"/>
<rect x="38.1" y="29" class="st1" width="9.3" height="9.4"/>
<rect x="28.7" y="137.4" class="st0" width="9.4" height="9.4"/>
<rect x="28.7" y="71.8" class="st0" width="9.4" height="9.4"/>
<rect x="28.7" y="29" class="st1" width="9.4" height="9.4"/>
<rect x="19.4" y="137.4" class="st1" width="9.4" height="9.4"/>
<rect x="19.4" y="71.8" class="st0" width="9.4" height="9.4"/>
<rect x="19.4" y="29" class="st1" width="9.4" height="9.4"/>
<rect x="10" y="128" class="st1" width="9.4" height="9.4"/>
<rect x="10" y="39.3" class="st1" width="9.4" height="9.4"/>
<rect x="0.7" y="118.7" class="st1" width="9.4" height="9.4"/>
<rect x="0.7" y="109.3" class="st1" width="9.4" height="9.4"/>
<rect x="0.7" y="99.9" class="st1" width="9.4" height="9.4"/>
<rect x="0.7" y="90.5" class="st1" width="9.4" height="9.4"/>
<rect x="0.7" y="81.2" class="st1" width="9.4" height="9.4"/>
<rect x="0.7" y="71.8" class="st1" width="9.4" height="9.4"/>
<rect x="0.7" y="62.5" class="st1" width="9.4" height="9.3"/>
<rect x="0.7" y="58.1" class="st1" width="9.4" height="4.4"/>
<rect x="0.7" y="53.1" class="st1" width="9.4" height="5"/>
<rect x="0.7" y="48.7" class="st1" width="9.4" height="4.4"/>
<rect x="18.9" y="132.7" class="st2" width="9.4" height="9.5"/>
<rect x="66.3" y="132.4" class="st2" width="9.4" height="9.5"/>
<rect x="9.4" y="123" class="st2" width="9.4" height="9.5"/>
<rect x="66.3" y="123" class="st2" width="9.4" height="9.5"/>
<rect x="9.4" y="113.6" class="st2" width="9.4" height="9.5"/>
<rect x="9.4" y="104.1" class="st2" width="9.4" height="9.5"/>
<rect x="66.3" y="104.1" class="st2" width="9.4" height="9.5"/>
<rect x="9.4" y="94.6" class="st2" width="9.4" height="9.5"/>
<rect x="66.3" y="94.6" class="st2" width="9.4" height="9.5"/>
<rect x="9.4" y="85.1" class="st2" width="9.4" height="9.5"/>
<rect x="77.6" y="84.9" class="st2" width="9.4" height="9.5"/>
<rect x="9.4" y="75.7" class="st2" width="9.4" height="9.5"/>
<rect x="47.3" y="75.7" class="st2" width="9.4" height="9.5"/>
<rect x="94.6" y="75.7" class="st2" width="9.4" height="9.5"/>
<rect x="9.4" y="66.2" class="st2" width="9.4" height="9.5"/>
<rect x="56.8" y="66.2" class="st2" width="9.4" height="9.5"/>
<rect x="75.7" y="66.2" class="st2" width="9.4" height="9.5"/>
<rect x="104.1" y="66.2" class="st2" width="9.4" height="9.5"/>
<rect x="9.4" y="56.8" class="st2" width="9.4" height="9.5"/>
<rect x="75.7" y="56.8" class="st2" width="9.4" height="9.5"/>
<rect x="105.9" y="56.4" class="st2" width="9.4" height="9.5"/>
<rect x="115.3" y="56.4" class="st2" width="9.4" height="9.5"/>
<rect x="9.4" y="47.3" class="st2" width="9.4" height="9.5"/>
<rect x="104.1" y="47.3" class="st2" width="9.4" height="9.5"/>
<rect x="18.9" y="37.9" class="st2" width="9.4" height="9.5"/>
<rect x="104.1" y="37.9" class="st2" width="9.4" height="9.5"/>
<rect x="104.1" y="28.4" class="st2" width="9.4" height="9.5"/>
<polygon class="st2" points="132.5,28.4 123.1,28.4 123.1,18.9 132.5,18.9 "/>
<polygon class="st2" points="151.4,9.4 151.4,9.5 151.4,18.9 142,18.9 142,9.4 "/>
<polygon class="st2" points="137.2,85.2 127.8,85.2 127.8,94.7 137.2,94.7 "/>
<polygon class="st2" points="156.2,104.1 156.2,104.1 156.2,94.6 146.7,94.6 146.7,104.1 "/>
<rect x="18.9" y="142" class="st3" width="9.5" height="9.5"/>
<rect x="28.4" y="142" class="st3" width="9.5" height="9.5"/>
<rect x="37.8" y="142" class="st3" width="9.5" height="9.5"/>
<rect x="47.3" y="142" class="st3" width="9.5" height="9.5"/>
<rect x="56.8" y="142" class="st3" width="9.5" height="9.5"/>
<rect x="66.3" y="142" class="st3" width="9.5" height="9.5"/>
<rect x="75.7" y="142" class="st3" width="9.4" height="9.5"/>
<rect x="85.1" y="142" class="st3" width="9.5" height="9.5"/>
<rect x="9.4" y="132.5" class="st3" width="9.5" height="9.5"/>
<rect x="56.8" y="132.5" class="st3" width="9.5" height="9.5"/>
<rect x="94.6" y="132.5" class="st3" width="9.5" height="9.5"/>
<rect y="123.1" class="st3" width="9.5" height="9.5"/>
<rect x="56.8" y="123.1" class="st3" width="9.5" height="9.5"/>
<rect x="94.6" y="123.1" class="st3" width="9.5" height="9.5"/>
<rect y="113.6" class="st3" width="9.5" height="9.5"/>
<rect x="66.3" y="113.6" class="st3" width="9.5" height="9.5"/>
<rect x="75.7" y="113.6" class="st3" width="9.4" height="9.5"/>
<rect x="85.1" y="113.6" class="st3" width="9.5" height="9.5"/>
<rect x="94.6" y="113.6" class="st3" width="9.5" height="9.5"/>
<rect y="104.1" class="st3" width="9.5" height="9.5"/>
<rect x="56.8" y="104.1" class="st3" width="9.5" height="9.5"/>
<rect x="104.1" y="104.1" class="st3" width="9.5" height="9.5"/>
<rect y="94.6" class="st3" width="9.5" height="9.5"/>
<rect x="56.8" y="94.6" class="st3" width="9.5" height="9.5"/>
<rect x="104.1" y="94.6" class="st3" width="9.5" height="9.5"/>
<rect y="85.2" class="st3" width="9.5" height="9.5"/>
<rect x="66.3" y="85.2" class="st3" width="9.5" height="9.5"/>
<rect x="75.7" y="85.2" class="st3" width="9.4" height="9.5"/>
<rect x="85.1" y="85.2" class="st3" width="9.5" height="9.5"/>
<rect x="94.6" y="85.2" class="st3" width="9.5" height="9.5"/>
<rect x="104.1" y="85.2" class="st3" width="9.5" height="9.5"/>
<polygon class="st3" points="123,94.6 113.6,94.6 113.6,85.2 123,85.2 "/>
<rect y="75.7" class="st3" width="9.5" height="9.5"/>
<rect x="18.9" y="75.7" class="st3" width="9.5" height="9.5"/>
<rect x="28.4" y="75.7" class="st3" width="9.5" height="9.5"/>
<rect x="37.8" y="75.7" class="st3" width="9.5" height="9.5"/>
<rect x="75.7" y="75.7" class="st3" width="9.4" height="9.5"/>
<rect x="85.1" y="75.7" class="st3" width="9.5" height="9.5"/>
<rect y="66.3" class="st3" width="9.5" height="9.4"/>
<rect x="47.3" y="66.3" class="st3" width="9.5" height="9.4"/>
<rect x="66.3" y="66.3" class="st3" width="9.5" height="9.4"/>
<rect x="94.6" y="66.3" class="st3" width="9.5" height="9.4"/>
<rect y="56.8" class="st3" width="9.5" height="9.5"/>
<rect x="56.8" y="56.8" class="st3" width="9.5" height="9.5"/>
<rect x="66.3" y="56.8" class="st3" width="9.5" height="9.5"/>
<rect x="94.6" y="56.8" class="st3" width="9.5" height="9.5"/>
<rect x="104.1" y="56.8" class="st3" width="9.5" height="9.5"/>
<polygon class="st3" points="123,66.3 113.6,66.3 113.6,56.8 123,56.8 123,66.2 "/>
<rect y="47.3" class="st3" width="9.5" height="9.5"/>
<rect x="94.6" y="47.3" class="st3" width="9.5" height="9.5"/>
<polygon class="st3" points="123,56.8 113.6,56.8 113.6,47.3 123,47.3 "/>
<rect x="9.4" y="37.9" class="st3" width="9.5" height="9.5"/>
<rect x="94.6" y="37.9" class="st3" width="9.5" height="9.5"/>
<polygon class="st3" points="132.5,47.3 123,47.3 123,37.9 123,37.9 132.5,37.9 "/>
<rect x="18.9" y="28.4" class="st3" width="9.5" height="9.5"/>
<rect x="28.4" y="28.4" class="st3" width="9.5" height="9.5"/>
<rect x="37.8" y="28.4" class="st3" width="9.5" height="9.5"/>
<rect x="47.3" y="28.4" class="st3" width="9.5" height="9.5"/>
<rect x="56.8" y="28.4" class="st3" width="9.5" height="9.5"/>
<rect x="66.3" y="28.4" class="st3" width="9.5" height="9.5"/>
<rect x="75.7" y="28.4" class="st3" width="9.4" height="9.5"/>
<rect x="85.1" y="28.4" class="st3" width="9.5" height="9.5"/>
<rect x="94.6" y="28.4" class="st3" width="9.5" height="9.5"/>
<polygon class="st3" points="151.4,37.9 142,37.9 142,37.9 142,28.4 151.4,28.4 "/>
<rect x="151.4" y="28.4" class="st3" width="9.5" height="9.5"/>
<polygon class="st3" points="142,37.9 142,47.3 132.5,47.3 132.5,37.9 "/>
<rect x="104.1" y="18.9" class="st3" width="9.5" height="9.5"/>
<polygon class="st3" points="123,28.4 113.6,28.4 113.6,18.9 123,18.9 "/>
<rect x="160.9" y="18.9" class="st3" width="9.5" height="9.5"/>
<polygon class="st3" points="132.5,18.9 123,18.9 123,9.5 123,9.4 132.5,9.4 "/>
<rect x="160.9" y="9.5" class="st3" width="9.5" height="9.5"/>
<polygon class="st3" points="151.4,9.5 142,9.5 142,9.4 142,0 151.4,0 "/>
<rect x="151.4" class="st3" width="9.5" height="9.5"/>
<polygon class="st3" points="142,9.4 142,9.5 142,18.9 132.5,18.9 132.5,9.4 "/>
<polygon class="st3" points="127.8,56.8 118.3,56.8 118.3,66.2 127.8,66.2 "/>
<polygon class="st3" points="137.2,66.2 127.8,66.2 127.8,75.7 127.8,75.7 137.2,75.7 "/>
<polygon points="156.2,75.7 146.7,75.7 146.7,75.7 146.7,85.2 156.2,85.2 "/>
<rect x="156.2" y="75.7" class="st3" width="9.5" height="9.5"/>
<polygon class="st3" points="146.7,75.7 146.7,66.2 137.2,66.2 137.2,75.7 "/>
<polygon class="st3" points="127.8,85.2 118.3,85.2 118.3,94.6 127.8,94.6 "/>
<rect x="165.6" y="85.2" class="st3" width="9.5" height="9.5"/>
<polygon class="st3" points="137.2,94.7 127.8,94.7 127.8,104.1 127.8,104.1 137.2,104.1 "/>
<rect x="165.6" y="94.7" class="st3" width="9.5" height="9.5"/>
<polygon class="st3" points="156.2,104.1 146.7,104.1 146.7,104.1 146.7,113.6 156.2,113.6 "/>
<rect x="156.2" y="104.1" class="st3" width="9.5" height="9.5"/>
<polygon class="st3" points="146.7,104.1 146.7,104.1 146.7,94.7 137.2,94.7 137.2,104.1 "/>
</svg>
