<?xml version="1.0" encoding="utf-8"?>
<!-- Generator: Adobe Illustrator 26.3.1, SVG Export Plug-In . SVG Version: 6.00 Build 0)  -->
<svg version="1.1" id="Layer_6" xmlns="http://www.w3.org/2000/svg" xmlns:xlink="http://www.w3.org/1999/xlink" x="0px" y="0px"
	 viewBox="0 0 170.5 151.5" style="enable-background:new 0 0 170.5 151.5;" xml:space="preserve">
<style type="text/css">
	.st0{fill:#D814AB;}
	.st1{fill:#F2E68E;}
	.st2{fill:#14181F;}
</style>
<polygon class="st0" points="166.6,118.6 166.6,128 161,128 157.2,128 157.2,118.6 "/>
<rect x="157.2" y="109.3" class="st0" width="9.4" height="9.4"/>
<rect x="157.2" y="99.9" class="st0" width="9.4" height="9.4"/>
<rect x="157.2" y="90.5" class="st0" width="9.4" height="9.4"/>
<rect x="157.2" y="81.1" class="st0" width="9.4" height="9.4"/>
<rect x="157.2" y="71.8" class="st0" width="9.4" height="9.4"/>
<rect x="157.2" y="62.4" class="st0" width="9.4" height="9.3"/>
<rect x="157.2" y="53" class="st0" width="9.4" height="9.4"/>
<rect x="157.2" y="47.4" class="st0" width="9.4" height="5.7"/>
<polygon class="st0" points="161,128 161,137.4 151.5,137.4 147.8,137.4 147.8,128 157.2,128 "/>
<rect x="147.8" y="37.9" class="st0" width="9.4" height="9.5"/>
<polygon class="st0" points="151.5,137.4 151.5,146.8 138.5,146.8 138.5,137.4 147.8,137.4 "/>
<rect x="138.5" y="71.8" class="st0" width="9.4" height="9.4"/>
<polygon class="st0" points="147.8,28.4 147.8,37.9 138.5,37.9 138.5,35.3 138.5,28.4 "/>
<rect x="129.1" y="137.4" class="st0" width="9.4" height="9.4"/>
<rect x="129.1" y="71.8" class="st0" width="9.4" height="9.4"/>
<polygon class="st0" points="138.5,37.9 147.8,37.9 147.8,47.4 157.2,47.4 157.2,53 157.2,62.4 157.2,71.8 157.2,81.1 157.2,90.5 
	157.2,99.9 157.2,109.3 157.2,118.6 157.2,128 147.8,128 147.8,137.4 138.5,137.4 129.1,137.4 119.8,137.4 110.4,137.4 110.4,128 
	110.4,118.6 101.1,118.6 101.1,109.3 110.4,109.3 110.4,99.9 110.4,90.5 101.1,90.5 101.1,81.1 91.7,81.1 91.7,71.8 101.1,71.8 
	101.1,62.4 110.4,62.4 110.4,71.8 119.8,71.8 119.8,81.1 129.1,81.1 138.5,81.1 147.8,81.1 147.8,71.8 138.5,71.8 129.1,71.8 
	119.8,71.8 119.8,62.4 110.4,62.4 110.4,53 101.1,53 91.7,53 91.7,62.4 91.7,71.8 82.4,71.8 73,71.8 73,62.4 73,53 73,43.7 73,35.3 
	82.4,35.3 91.7,35.3 101,35.3 110.4,35.3 119.8,35.3 129.1,35.3 138.5,35.3 "/>
<rect x="129.1" y="28.4" class="st0" width="9.4" height="6.9"/>
<rect x="119.8" y="137.4" class="st0" width="9.4" height="9.4"/>
<rect x="119.8" y="71.8" class="st0" width="9.4" height="9.4"/>
<rect x="119.8" y="28.4" class="st0" width="9.4" height="6.9"/>
<rect x="110.4" y="137.4" class="st0" width="9.4" height="9.4"/>
<rect x="110.4" y="62.4" class="st0" width="9.4" height="9.3"/>
<rect x="110.4" y="28.4" class="st0" width="9.4" height="6.9"/>
<rect x="101.1" y="137.4" class="st0" width="9.4" height="9.4"/>
<rect x="101.1" y="128" class="st0" width="9.4" height="9.4"/>
<rect x="101.1" y="118.6" class="st0" width="9.4" height="9.4"/>
<rect x="101.1" y="99.9" class="st0" width="9.4" height="9.4"/>
<rect x="101.1" y="90.5" class="st0" width="9.4" height="9.4"/>
<rect x="101.1" y="53" class="st0" width="9.4" height="9.4"/>
<rect x="101" y="28.4" class="st0" width="9.4" height="6.9"/>
<rect x="91.7" y="137.4" class="st0" width="9.4" height="9.4"/>
<polygon class="st0" points="101.1,128 101.1,137.4 91.7,137.4 82.4,137.4 75.9,137.4 75.9,128 75.9,118.6 82.4,118.6 91.7,118.6 
	101.1,118.6 "/>
<rect x="91.7" y="109.3" class="st0" width="9.4" height="9.4"/>
<polygon class="st0" points="101.1,99.9 101.1,109.3 91.7,109.3 82.4,109.3 75.9,109.3 73,109.3 67.5,109.3 67.5,99.9 67.5,90.5 
	73,90.5 82.4,90.5 91.7,90.5 101.1,90.5 "/>
<rect x="91.7" y="81.1" class="st0" width="9.4" height="9.4"/>
<rect x="91.7" y="62.4" class="st0" width="9.4" height="9.3"/>
<rect x="91.7" y="53" class="st0" width="9.4" height="9.4"/>
<rect x="91.7" y="28.4" class="st0" width="9.4" height="6.9"/>
<rect x="82.4" y="137.4" class="st0" width="9.3" height="9.4"/>
<rect x="82.4" y="109.3" class="st0" width="9.3" height="9.4"/>
<rect x="82.4" y="81.1" class="st0" width="9.3" height="9.4"/>
<rect x="82.4" y="71.8" class="st0" width="9.3" height="9.4"/>
<rect x="82.4" y="28.4" class="st0" width="9.3" height="6.9"/>
<polygon class="st0" points="82.4,137.4 82.4,146.8 75.8,146.8 75.8,137.4 75.9,137.4 "/>
<rect x="75.9" y="109.3" class="st0" width="6.5" height="9.4"/>
<rect x="73" y="81.1" class="st0" width="9.4" height="9.4"/>
<rect x="73" y="71.8" class="st0" width="9.4" height="9.4"/>
<polygon class="st0" points="82.4,28.4 82.4,35.3 73,35.3 73,34.3 73,34.3 73,28.4 "/>
<polygon class="st0" points="75.9,128 75.9,137.4 75.8,137.4 66.3,137.4 66.3,128 "/>
<polygon class="st0" points="75.9,118.6 75.9,128 66.3,128 66.3,118.6 73,118.6 "/>
<rect x="73" y="109.3" class="st0" width="2.8" height="9.4"/>
<polygon class="st0" points="73,109.3 73,118.6 66.3,118.6 66.3,109.3 67.5,109.3 "/>
<polygon class="st0" points="73,81.1 73,90.5 67.5,90.5 63.7,90.5 63.7,81.1 "/>
<rect x="63.7" y="62.4" class="st0" width="9.4" height="9.3"/>
<rect x="63.7" y="53" class="st0" width="9.4" height="9.4"/>
<rect x="63.7" y="43.7" class="st0" width="9.4" height="9.4"/>
<polygon class="st0" points="73,35.3 73,43.7 63.7,43.7 63.7,35.3 "/>
<rect x="73" y="34.3" class="st0" width="0" height="1"/>
<rect x="63.7" y="34.3" class="st0" width="9.4" height="1"/>
<rect x="63.7" y="28.4" class="st0" width="9.4" height="5.9"/>
<polygon class="st0" points="67.5,99.9 67.5,109.3 66.3,109.3 57.6,109.3 57.6,99.9 "/>
<polygon class="st0" points="67.5,90.5 67.5,99.9 57.6,99.9 57.6,90.5 63.7,90.5 "/>
<polygon class="st0" points="63.7,81.1 63.7,90.5 57.6,90.5 54.3,90.5 54.3,81.1 "/>
<polygon class="st0" points="63.7,53 63.7,62.4 54.3,62.4 54.3,53 55.3,53 "/>
<polygon class="st0" points="63.7,18.9 63.7,28.4 54.3,28.4 54.3,25.9 54.3,18.9 "/>
<polygon class="st0" points="55.3,41.4 55.3,53 54.3,53 54.3,53 54.3,53 47.4,53 47.4,53 47.4,43.7 47.4,41.4 "/>
<polygon class="st0" points="54.3,81.1 54.3,90.5 54.3,90.5 54.3,81.2 45,81.2 45,81.1 "/>
<polygon class="st0" points="26.2,34.3 26.2,24.9 16.9,24.9 9.5,24.9 7.5,24.9 7.5,15.5 7.5,15.5 7.5,11.7 9.5,11.7 16.9,11.7 
	16.9,9.5 26.2,9.5 26.2,16.4 35.6,16.4 35.6,18.9 45,18.9 45,25.8 45,25.9 54.3,25.9 54.3,28.4 63.7,28.4 63.7,28.4 63.7,34.3 
	63.7,35.3 63.7,43.7 63.7,53 55.3,53 55.3,41.4 47.4,41.4 47.4,34.3 47.4,34.3 35.6,34.3 28.5,34.3 28.5,34.3 "/>
<polygon class="st0" points="54.3,18.9 54.3,25.9 45,25.9 45,25.8 45,18.9 "/>
<polygon class="st0" points="48.2,62.4 54.3,62.4 54.3,53 54.3,53 54.3,62.4 54.3,66.3 47.4,66.3 47.4,66.3 47.4,53 47.8,53 
	48.2,53.1 "/>
<polygon class="st0" points="54.3,53 47.8,53 47.4,53 "/>
<polygon class="st0" points="54.3,81.2 54.3,90.5 45,90.5 45,90.5 45,81.2 "/>
<polygon class="st0" points="54.3,53 54.3,62.4 48.2,62.4 48.2,53.1 47.8,53 "/>
<polygon class="st0" points="47.8,53 47.4,53 47.4,53 "/>
<polygon class="st0" points="47.4,41.4 47.4,43.7 35.6,43.7 35.6,34.3 47.4,34.3 47.4,34.3 "/>
<polygon class="st0" points="47.4,99.9 47.4,99.9 35.6,99.9 35.6,90.5 47.4,90.5 "/>
<polygon class="st0" points="45,9.5 45,18.9 35.6,18.9 35.6,16.4 35.6,9.4 45,9.4 "/>
<polygon class="st0" points="45,90.5 54.3,90.5 54.3,90.5 47.4,90.5 44.9,90.5 44.9,81.2 44.9,81.2 45,81.2 "/>
<polygon class="st0" points="47.4,90.5 35.6,90.5 26.2,90.5 26.2,99.9 16.9,99.9 16.9,99.9 9.5,99.9 9.5,99.9 9.5,92.6 9.5,85.3 
	16.9,85.3 16.9,85.3 26.2,85.3 26.2,75.7 26.2,75.7 28.5,75.5 35.6,75.5 35.6,75.5 44.9,75.5 44.9,75.4 44.9,66.3 47.4,66.3 
	54.3,66.3 54.3,62.4 63.7,62.4 63.7,71.8 73,71.8 73,81.1 63.7,81.1 54.3,81.1 45,81.1 45,81.2 44.9,81.2 44.9,81.2 44.9,90.5 "/>
<polygon class="st0" points="44.9,75.4 44.9,75.5 35.6,75.5 35.6,66.3 44.9,66.3 "/>
<rect x="35.6" y="66.3" class="st0" width="0" height="9.1"/>
<polygon class="st0" points="35.6,34.3 35.6,43.7 28.5,43.7 28.5,34.3 28.5,34.3 "/>
<polygon class="st0" points="35.6,9.4 35.6,16.4 26.2,16.4 26.2,9.5 26.2,9.5 26.2,9.4 "/>
<polygon class="st0" points="35.6,90.5 35.6,99.9 28.5,99.9 28.5,99.9 26.2,99.9 26.2,90.5 "/>
<polygon class="st0" points="35.6,66.3 35.6,75.5 28.5,75.5 28.5,75.4 28.5,66.3 "/>
<polygon class="st0" points="26.2,99.9 28.4,99.9 28.4,99.9 "/>
<polygon class="st0" points="28.5,99.9 28.5,109.3 16.9,109.3 16.9,99.9 26.2,99.9 26.2,99.9 "/>
<polygon class="st0" points="26.2,75.7 26.2,85.3 16.9,85.3 16.9,75.7 "/>
<polygon class="st0" points="26.2,34.3 26.2,34.3 16.9,34.3 16.9,24.9 26.2,24.9 "/>
<polygon class="st0" points="26.2,9.5 26.2,9.5 16.9,9.5 16.9,0 26.2,0 26.2,9.4 "/>
<rect x="16.9" y="99.9" class="st0" width="0" height="9.4"/>
<rect x="16.9" y="75.7" class="st0" width="0" height="9.5"/>
<rect x="9.5" y="24.9" class="st0" width="7.4" height="9.4"/>
<polygon class="st0" points="16.9,9.5 16.9,11.7 9.5,11.7 9.5,0 16.9,0 "/>
<rect x="9.5" y="99.9" class="st0" width="7.3" height="9.4"/>
<polygon class="st0" points="16.9,75.7 16.9,85.3 9.5,85.3 9.5,85.3 9.5,75.7 "/>
<rect x="0.9" y="92.6" class="st0" width="8.6" height="7.3"/>
<polygon class="st0" points="9.5,85.3 9.5,92.6 0.9,92.6 0.9,85.3 "/>
<rect y="15.5" class="st0" width="7.5" height="9.4"/>
<polygon class="st0" points="7.5,11.7 7.5,15.5 0,15.5 0,9.4 7.5,9.4 "/>
<rect x="113.7" y="132.5" class="st1" width="9.4" height="9.5"/>
<rect x="75.8" y="132.6" class="st1" width="9.4" height="9.5"/>
<rect x="113.7" y="123.3" class="st1" width="9.4" height="9.5"/>
<rect x="75.9" y="123" class="st1" width="9.4" height="9.5"/>
<rect x="104.2" y="113.9" class="st1" width="9.4" height="9.5"/>
<rect x="113.7" y="104.1" class="st1" width="9.4" height="9.5"/>
<rect x="66.4" y="104.1" class="st1" width="9.4" height="9.5"/>
<rect x="113.7" y="94.7" class="st1" width="9.4" height="9.5"/>
<rect x="66.4" y="94.4" class="st1" width="9.4" height="9.5"/>
<rect x="104.2" y="85.2" class="st1" width="9.4" height="9.5"/>
<rect x="151.6" y="75.7" class="st1" width="9.4" height="9.5"/>
<rect x="94.8" y="75.7" class="st1" width="9.4" height="9.5"/>
<rect x="123.1" y="66.3" class="st1" width="9.4" height="9.5"/>
<rect x="104.2" y="66.3" class="st1" width="9.4" height="9.5"/>
<rect x="75.9" y="66.3" class="st1" width="9.4" height="9.5"/>
<rect x="113.7" y="56.8" class="st1" width="9.4" height="9.5"/>
<rect x="75.9" y="56.8" class="st1" width="9.4" height="9.5"/>
<rect x="75.9" y="47.3" class="st1" width="9.4" height="9.5"/>
<polygon class="st1" points="56.9,56.8 66.3,56.8 66.3,47.4 56.9,47.4 "/>
<rect x="75.9" y="37.8" class="st1" width="9.4" height="9.5"/>
<polygon class="st1" points="47.4,47.4 56.8,47.4 56.8,37.9 56.8,37.9 47.4,37.9 "/>
<polygon class="st1" points="28.5,37.9 37.9,37.9 37.9,37.9 37.9,28.4 28.5,28.4 "/>
<rect x="9.5" y="18.9" class="st1" width="9.4" height="9.5"/>
<rect x="9.5" y="9.5" class="st1" width="9.4" height="9.5"/>
<polygon class="st1" points="47.4,66.3 56.8,66.3 56.8,75.7 56.8,75.8 47.4,75.8 "/>
<polygon class="st1" points="28.5,75.4 37.9,75.4 37.9,75.5 37.9,85 28.5,85 "/>
<rect x="9.5" y="85.2" class="st1" width="9.4" height="9.5"/>
<rect x="9.5" y="94.5" class="st1" width="9.4" height="9.5"/>
<rect x="142.1" y="142" class="st2" width="9.5" height="9.5"/>
<rect x="132.6" y="142" class="st2" width="9.5" height="9.5"/>
<rect x="123.1" y="142" class="st2" width="9.5" height="9.5"/>
<rect x="113.7" y="142" class="st2" width="9.5" height="9.5"/>
<rect x="104.2" y="142" class="st2" width="9.5" height="9.5"/>
<rect x="94.7" y="142" class="st2" width="9.5" height="9.5"/>
<rect x="85.3" y="142" class="st2" width="9.4" height="9.5"/>
<rect x="75.8" y="142" class="st2" width="9.5" height="9.5"/>
<rect x="151.5" y="132.5" class="st2" width="9.5" height="9.5"/>
<rect x="104.2" y="132.5" class="st2" width="9.5" height="9.5"/>
<rect x="66.3" y="132.5" class="st2" width="9.5" height="9.5"/>
<rect x="161" y="123.1" class="st2" width="9.5" height="9.5"/>
<rect x="104.2" y="123.1" class="st2" width="9.5" height="9.5"/>
<rect x="66.3" y="123.1" class="st2" width="9.5" height="9.5"/>
<rect x="161" y="113.6" class="st2" width="9.5" height="9.5"/>
<rect x="94.7" y="113.6" class="st2" width="9.5" height="9.5"/>
<rect x="85.3" y="113.6" class="st2" width="9.4" height="9.5"/>
<rect x="75.8" y="113.6" class="st2" width="9.5" height="9.5"/>
<rect x="66.3" y="113.6" class="st2" width="9.5" height="9.5"/>
<rect x="161" y="104.1" class="st2" width="9.5" height="9.5"/>
<rect x="104.2" y="104.1" class="st2" width="9.5" height="9.5"/>
<rect x="56.9" y="104.1" class="st2" width="9.5" height="9.5"/>
<rect x="161" y="94.7" class="st2" width="9.5" height="9.5"/>
<rect x="104.2" y="94.7" class="st2" width="9.5" height="9.5"/>
<rect x="56.9" y="94.7" class="st2" width="9.5" height="9.5"/>
<rect x="161" y="85.2" class="st2" width="9.5" height="9.5"/>
<rect x="94.7" y="85.2" class="st2" width="9.5" height="9.5"/>
<rect x="85.3" y="85.2" class="st2" width="9.4" height="9.5"/>
<rect x="75.8" y="85.2" class="st2" width="9.5" height="9.5"/>
<rect x="66.3" y="85.2" class="st2" width="9.5" height="9.5"/>
<rect x="56.9" y="85.2" class="st2" width="9.5" height="9.5"/>
<polygon class="st2" points="47.4,94.7 56.9,94.7 56.9,85.2 47.4,85.2 47.4,94.6 "/>
<rect x="161" y="75.7" class="st2" width="9.5" height="9.5"/>
<rect x="142.1" y="75.7" class="st2" width="9.5" height="9.5"/>
<rect x="132.6" y="75.7" class="st2" width="9.5" height="9.5"/>
<rect x="123.1" y="75.7" class="st2" width="9.5" height="9.5"/>
<rect x="85.3" y="75.7" class="st2" width="9.4" height="9.5"/>
<rect x="75.8" y="75.7" class="st2" width="9.5" height="9.5"/>
<rect x="161" y="66.3" class="st2" width="9.5" height="9.4"/>
<rect x="113.7" y="66.3" class="st2" width="9.5" height="9.4"/>
<rect x="94.7" y="66.3" class="st2" width="9.5" height="9.4"/>
<rect x="66.3" y="66.3" class="st2" width="9.5" height="9.4"/>
<rect x="161" y="56.8" class="st2" width="9.5" height="9.5"/>
<rect x="104.2" y="56.8" class="st2" width="9.5" height="9.5"/>
<rect x="94.7" y="56.8" class="st2" width="9.5" height="9.5"/>
<rect x="66.3" y="56.8" class="st2" width="9.5" height="9.5"/>
<rect x="56.9" y="56.8" class="st2" width="9.5" height="9.5"/>
<polygon class="st2" points="47.4,66.3 56.9,66.3 56.9,56.8 47.4,56.8 "/>
<rect x="161" y="47.4" class="st2" width="9.5" height="9.5"/>
<rect x="66.3" y="47.4" class="st2" width="9.5" height="9.5"/>
<polygon class="st2" points="47.4,56.8 56.9,56.8 56.9,47.4 47.4,47.4 "/>
<rect x="151.5" y="37.9" class="st2" width="9.5" height="9.5"/>
<rect x="66.3" y="37.9" class="st2" width="9.5" height="9.5"/>
<polygon class="st2" points="37.9,47.4 47.4,47.4 47.4,37.9 47.4,37.9 37.9,37.9 "/>
<rect x="142.1" y="28.4" class="st2" width="9.5" height="9.5"/>
<rect x="132.6" y="28.4" class="st2" width="9.5" height="9.5"/>
<rect x="123.1" y="28.4" class="st2" width="9.5" height="9.5"/>
<rect x="113.7" y="28.4" class="st2" width="9.5" height="9.5"/>
<rect x="104.2" y="28.4" class="st2" width="9.5" height="9.5"/>
<rect x="94.7" y="28.4" class="st2" width="9.5" height="9.5"/>
<rect x="85.3" y="28.4" class="st2" width="9.4" height="9.5"/>
<rect x="75.8" y="28.4" class="st2" width="9.5" height="9.5"/>
<rect x="66.3" y="28.4" class="st2" width="9.5" height="9.5"/>
<polygon class="st2" points="19,37.9 28.5,37.9 28.5,37.9 28.5,28.4 19,28.4 "/>
<rect x="9.5" y="28.4" class="st2" width="9.5" height="9.5"/>
<polygon class="st2" points="28.5,37.9 28.5,47.4 37.9,47.4 37.9,37.9 "/>
<rect x="56.9" y="19" class="st2" width="9.5" height="9.5"/>
<polygon class="st2" points="47.4,28.4 56.9,28.4 56.9,19 47.4,19 "/>
<rect y="18.9" class="st2" width="9.5" height="9.5"/>
<polygon class="st2" points="37.9,18.9 47.4,18.9 47.4,9.5 47.4,9.5 37.9,9.5 "/>
<rect y="9.5" class="st2" width="9.5" height="9.5"/>
<polygon class="st2" points="19,9.5 28.5,9.5 28.5,9.5 28.5,0 19,0 "/>
<rect x="9.5" class="st2" width="9.5" height="9.5"/>
<polygon class="st2" points="28.5,9.5 28.5,9.5 28.5,18.9 37.9,18.9 37.9,9.5 "/>
<polygon class="st2" points="47.4,56.8 56.9,56.8 56.9,66.3 47.4,66.3 "/>
<polygon class="st2" points="37.9,66.3 47.4,66.3 47.4,75.7 47.4,75.8 37.9,75.8 "/>
<polygon class="st2" points="19,75.7 28.5,75.7 28.5,75.8 28.5,85.2 19,85.2 "/>
<rect x="9.5" y="75.7" class="st2" width="9.5" height="9.5"/>
<polygon class="st2" points="28.5,75.7 28.5,66.3 37.9,66.3 37.9,75.8 28.5,75.8 "/>
<polygon class="st2" points="47.4,85.2 56.9,85.2 56.9,94.7 47.4,94.7 "/>
<rect y="85.2" class="st2" width="9.5" height="9.5"/>
<polygon class="st2" points="37.9,94.7 47.4,94.7 47.4,104.1 47.4,104.2 37.9,104.2 "/>
<rect y="94.7" class="st2" width="9.5" height="9.5"/>
<polygon class="st2" points="19,104.1 28.5,104.1 28.5,104.2 28.5,113.6 19,113.6 "/>
<rect x="9.5" y="104.1" class="st2" width="9.5" height="9.5"/>
<polygon class="st2" points="28.5,104.2 28.5,104.1 28.5,94.7 37.9,94.7 37.9,104.2 "/>
</svg>
